<svg id="cloud-download" xmlns="http://www.w3.org/2000/svg" width="34.853" height="25.559" viewBox="0 0 34.853 25.559">
  <path id="cloud-download-2" data-name="cloud-download" d="M23.235,14.522a.563.563,0,0,0-.164-.417.57.57,0,0,0-.417-.164H18.588V7.552a.589.589,0,0,0-.581-.581H14.522a.589.589,0,0,0-.581.581v6.39H9.875a.59.59,0,0,0-.417,1l6.39,6.39a.614.614,0,0,0,.835,0l6.371-6.371A.681.681,0,0,0,23.235,14.522Zm11.618,4.066a6.971,6.971,0,0,1-6.971,6.971H8.132a7.83,7.83,0,0,1-5.745-2.387A7.837,7.837,0,0,1,0,17.427a8.121,8.121,0,0,1,4.684-7.352q-.036-.545-.036-.78A8.952,8.952,0,0,1,7.371,2.723,8.958,8.958,0,0,1,13.941,0a9.3,9.3,0,0,1,8.6,5.772,4.623,4.623,0,0,1,6.3.236,4.472,4.472,0,0,1,1.361,3.286,4.44,4.44,0,0,1-.745,2.5,6.865,6.865,0,0,1,3.875,2.46A6.758,6.758,0,0,1,34.853,18.588Z" fill="#065367"/>
</svg>
