<svg xmlns="http://www.w3.org/2000/svg" width="182.526" height="154" viewBox="0 0 182.526 154">
  <g id="Component_6_1" data-name="Component 6 – 1" transform="translate(3 3)">
    <text id="_3" data-name="3" transform="translate(0 111)" fill="none" stroke="#065367" stroke-width="3" font-size="106" font-family="Poppins-Black, Poppins" font-weight="800"><tspan x="0" y="0">3</tspan></text>
    <g id="Layer_2" data-name="Layer 2" transform="translate(25.021 8.295)">
      <g id="Layer_1" data-name="Layer 1" transform="translate(-0.021 0.006)">
        <ellipse id="Ellipse_52" data-name="Ellipse 52" cx="53.322" cy="5.777" rx="53.322" ry="5.777" transform="translate(22.953 119.702)" fill="#81e1f7"/>
        <path id="Path_2024" data-name="Path 2024" d="M87.822,9.514a16.524,16.524,0,0,0-30.7,1.972,8.977,8.977,0,0,0-8.538,9.084c0,.468,48.965.323,48.965,0C97.578,13.036,95,9.448,89.044,9.448A10.862,10.862,0,0,0,87.822,9.514Z" transform="translate(-39.408 -0.006)" fill="#04a5cf" fill-rule="evenodd"/>
        <path id="Path_2025" data-name="Path 2025" d="M513.6,13.236a15.174,15.174,0,0,1,28.19,1.809,8.248,8.248,0,0,1,7.843,8.345c0,.431-44.973.295-44.973,0-.03-6.916,2.344-10.219,7.807-10.219a10.05,10.05,0,0,1,1.132.064Z" transform="translate(-409.349 -3.653)" fill="#04a5cf" fill-rule="evenodd"/>
        <path id="Path_2026" data-name="Path 2026" d="M49.834,260.537l4.128,4.126a1.335,1.335,0,0,0,1.889-1.888l-4.132-4.124a1.335,1.335,0,1,0-1.889,1.888Z" transform="translate(-4.671 -223.927)" fill="#c7ceff" fill-rule="evenodd"/>
        <path id="Path_2027" data-name="Path 2027" d="M53.978,258.658l-4.128,4.128a1.335,1.335,0,0,0,1.889,1.888l4.126-4.126a1.335,1.335,0,1,0-1.889-1.889Z" transform="translate(-4.687 -223.935)" fill="#c7ceff" fill-rule="evenodd"/>
        <path id="Path_2028" data-name="Path 2028" d="M782.628,370.939l4.126,4.126a1.335,1.335,0,1,0,1.889-1.888l-4.125-4.126a1.335,1.335,0,0,0-1.889,1.889Z" transform="translate(-634.508 -299.038)" fill="#c7ceff" fill-rule="evenodd"/>
        <path id="Path_2029" data-name="Path 2029" d="M786.747,369.07,782.62,373.2a1.335,1.335,0,0,0,1.889,1.888l4.124-4.126a1.335,1.335,0,1,0-1.888-1.889Z" transform="translate(-634.5 -299.055)" fill="#c7ceff" fill-rule="evenodd"/>
        <path id="Path_2030" data-name="Path 2030" d="M.374,522.985,4.5,527.113a1.335,1.335,0,0,0,1.889-1.889L2.259,521.1A1.335,1.335,0,0,0,.37,522.989Z" transform="translate(-5.979 -404.094)" fill="#c7ceff" fill-rule="evenodd"/>
        <path id="Path_2031" data-name="Path 2031" d="M4.516,521.084.39,525.21A1.335,1.335,0,1,0,2.279,527.1l4.123-4.13a1.335,1.335,0,0,0-1.889-1.889Z" transform="translate(-5.995 -404.077)" fill="#c7ceff" fill-rule="evenodd"/>
        <path id="Path_2032" data-name="Path 2032" d="M164.166,405.7l-6.213-49.126a3.8,3.8,0,0,1,3.856-4.374h52.325Z" transform="translate(-128.092 -285.688)" fill="#81e1f7"/>
        <path id="Path_2033" data-name="Path 2033" d="M324.227,152.82h-5.973a9.184,9.184,0,0,0,.272-2.206V142.6c0-4.6-3.384-8.355-7.522-8.355s-7.52,3.758-7.52,8.355v8.009a9.1,9.1,0,0,0,.278,2.206h-5.971c-4.595,0-6.128,3.022-3.4,6.733l11.671,15.892c2.723,3.7,7.176,3.7,9.9,0l11.68-15.892c2.719-3.7,1.188-6.733-3.409-6.733Z" transform="translate(-237.693 -108.898)" fill="#04a5cf"/>
        <path id="Path_2034" data-name="Path 2034" d="M358.979,145.76h4.4c2.954,0,4.844,1.133,5.637,2.708s.593,3.768-1.154,6.147l-2.149-1.579c.975-1.322,1.365-2.489.924-3.363s-1.611-1.246-3.258-1.246H357.41a1.333,1.333,0,0,1-1.3-1.654,7.725,7.725,0,0,0,.238-1.889v-8.005c0-3.826-2.744-7.023-6.189-7.023s-6.187,3.2-6.187,7.023H341.31c0-5.365,4.026-9.688,8.853-9.688s8.853,4.323,8.853,9.688v8.009C359.017,145.182,359,145.473,358.979,145.76Z" transform="translate(-276.849 -103.171)" fill="#065367" fill-rule="evenodd"/>
        <path id="Path_2035" data-name="Path 2035" d="M298.05,225.52h-5.975c-2.952,0-4.842,1.133-5.637,2.708s-.593,3.768,1.156,6.147l11.677,15.894a7.121,7.121,0,0,0,12.045,0l-2.149-1.579a4.475,4.475,0,0,1-7.747,0L289.742,232.8c-.976-1.322-1.367-2.489-.925-3.363s1.611-1.246,3.258-1.246h5.975Z" transform="translate(-231.978 -182.931)" fill="#065367" fill-rule="evenodd"/>
        <path id="Path_2036" data-name="Path 2036" d="M191,391.813h78.481l9.994-56.733H241.408a9.974,9.974,0,0,0-7.055,3.528l-7.054,9.407H205.392a5.806,5.806,0,0,0-5.39,4.3Z" transform="translate(-154.925 -271.801)" fill="#fff"/>
        <path id="Path_2037" data-name="Path 2037" d="M467.26,555.248,469.4,543.09h21.907l-2.142,12.158Z" transform="translate(-379.014 -440.528)" fill="#81e1f7"/>
        <path id="Path_2038" data-name="Path 2038" d="M160.654,399.8l-6.209-49.124a2.493,2.493,0,0,1,2.533-2.874h25.655a1.333,1.333,0,1,0,0-2.667H156.979a5.1,5.1,0,0,0-5.178,5.875l6.208,49.124a1.333,1.333,0,1,0,2.644-.334Z" transform="translate(-123.092 -279.961)" fill="#065367" fill-rule="evenodd"/>
        <path id="Path_2039" data-name="Path 2039" d="M243.184,396.51H221.277a7.2,7.2,0,0,0-6.689,5.335L210.4,420.192a1.333,1.333,0,0,0,2.6.593l4.187-18.347a4.407,4.407,0,0,1,4.091-3.261h21.907a1.333,1.333,0,0,0,0-2.667Z" transform="translate(-170.642 -321.63)" fill="#065367" fill-rule="evenodd"/>
        <path id="Path_2040" data-name="Path 2040" d="M273.039,330.687H236.557a1.333,1.333,0,1,1,0-2.667h38.067a1.335,1.335,0,0,1,1.322,1.566l-9.994,56.731a1.335,1.335,0,0,1-1.322,1.1H186.143a1.333,1.333,0,1,1,0-2.667H263.51Z" transform="translate(-149.904 -266.074)" fill="#065367" fill-rule="evenodd"/>
      </g>
    </g>
  </g>
</svg>
