<svg xmlns="http://www.w3.org/2000/svg" width="175.428" height="154" viewBox="0 0 175.428 154">
  <g id="Component_5_1" data-name="Component 5 – 1" transform="translate(0 3)">
    <text id="_2" data-name="2" transform="translate(5 111)" fill="none" stroke="#065367" stroke-width="3" font-size="106" font-family="Poppins-Black, Poppins" font-weight="800"><tspan x="0" y="0">2</tspan></text>
    <g id="Layer_2" data-name="Layer 2" transform="translate(32.021 33.652)">
      <g id="Layer_1" data-name="Layer 1" transform="translate(-0.021 -0.007)">
        <ellipse id="Ellipse_53" data-name="Ellipse 53" cx="52.129" cy="4.978" rx="52.129" ry="4.978" transform="translate(20.524 93.957)" fill="#81e1f7"/>
        <path id="Path_2041" data-name="Path 2041" d="M153.27,7.117a12.378,12.378,0,0,0-23,1.477,6.727,6.727,0,0,0-6.4,6.807c0,.349,36.682.241,36.682,0,.023-5.641-1.92-8.334-6.374-8.334a8.334,8.334,0,0,0-.915.05Z" transform="translate(-102.253 0.007)" fill="#04a5cf" fill-rule="evenodd"/>
        <path id="Path_2042" data-name="Path 2042" d="M501.942,39.538a6.362,6.362,0,0,1,11.82.759,3.454,3.454,0,0,1,3.288,3.491c0,.175-18.85.124-18.85,0-.01-2.9.984-4.283,3.278-4.283A4.218,4.218,0,0,1,501.942,39.538Z" transform="translate(-411.242 -29.613)" fill="#04a5cf" fill-rule="evenodd"/>
        <path id="Path_2043" data-name="Path 2043" d="M.344,264.036l3.814,3.812A1.234,1.234,0,1,0,5.9,266.1L2.086,262.29A1.234,1.234,0,1,0,.34,264.036Z" transform="translate(-31.979 -225.212)" fill="#c7ceff" fill-rule="evenodd"/>
        <path id="Path_2044" data-name="Path 2044" d="M4.174,262.29.36,266.1a1.234,1.234,0,1,0,1.745,1.745l3.81-3.812a1.234,1.234,0,1,0-1.745-1.745Z" transform="translate(-31.995 -225.212)" fill="#c7ceff" fill-rule="evenodd"/>
        <path id="Path_2045" data-name="Path 2045" d="M786.092,484.572l3.815,3.814a1.234,1.234,0,0,0,1.745-1.745l-3.817-3.81a1.234,1.234,0,1,0-1.745,1.745Z" transform="translate(-648.587 -398.259)" fill="#c7ceff" fill-rule="evenodd"/>
        <path id="Path_2046" data-name="Path 2046" d="M789.916,482.83l-3.815,3.814a1.234,1.234,0,0,0,1.745,1.745l3.814-3.814a1.234,1.234,0,1,0-1.745-1.745Z" transform="translate(-648.595 -398.259)" fill="#c7ceff" fill-rule="evenodd"/>
        <path id="Path_2047" data-name="Path 2047" d="M759.834,178.036l3.814,3.814a1.234,1.234,0,0,0,1.745-1.745l-3.817-3.814a1.234,1.234,0,1,0-1.745,1.745Z" transform="translate(-626.91 -145.222)" fill="#c7ceff" fill-rule="evenodd"/>
        <path id="Path_2048" data-name="Path 2048" d="M763.666,176.29,759.85,180.1a1.234,1.234,0,0,0,1.745,1.745l3.812-3.814a1.234,1.234,0,0,0-1.745-1.745Z" transform="translate(-626.927 -145.222)" fill="#c7ceff" fill-rule="evenodd"/>
        <path id="Path_2049" data-name="Path 2049" d="M201.793,205.928v1.792a14.373,14.373,0,0,1-14.329,14.329H108.649A14.371,14.371,0,0,1,94.32,207.72v-1.792a14.252,14.252,0,0,1,.787-4.683,14.443,14.443,0,0,1,9.064-8.931,35.809,35.809,0,0,1,61.884-24.378c.555-.054,1.129-.072,1.7-.072A22.842,22.842,0,0,1,190.6,190.7c0,.412-.017.824-.035,1.236a14.446,14.446,0,0,1,10.443,9.306A14.253,14.253,0,0,1,201.793,205.928Z" transform="translate(-77.854 -129.324)" fill="#81e1f7"/>
        <path id="Path_2050" data-name="Path 2050" d="M204.728,201.245a14.4,14.4,0,0,1-13.539,9.645H112.372a14.394,14.394,0,0,1-13.542-9.645,14.443,14.443,0,0,1,9.064-8.931,35.809,35.809,0,0,1,61.884-24.378c.555-.054,1.129-.072,1.7-.072A22.842,22.842,0,0,1,194.321,190.7c0,.412-.017.824-.035,1.236A14.446,14.446,0,0,1,204.728,201.245Z" transform="translate(-81.577 -129.324)" fill="#fff"/>
        <path id="Path_2051" data-name="Path 2051" d="M195.9,215.431a28,28,0,0,1,38.255-17.708.656.656,0,0,0,.534-1.2,29.328,29.328,0,0,0-40.044,18.546.656.656,0,1,0,1.258.368Z" transform="translate(-160.638 -160.139)" fill="#81e1f7" fill-rule="evenodd"/>
        <path id="Path_2052" data-name="Path 2052" d="M487.858,264.143a16.406,16.406,0,0,1,20.608,13.614.656.656,0,0,0,1.3-.175,17.715,17.715,0,0,0-22.255-14.7.656.656,0,0,0,.349,1.265Z" transform="translate(-402.021 -216.477)" fill="#81e1f7" fill-rule="evenodd"/>
        <path id="Path_2053" data-name="Path 2053" d="M114.8,185.62a37.042,37.042,0,0,1,63.592-24.784c.4-.023.808-.031,1.222-.031a24.009,24.009,0,0,1,17.881,7.968,1.232,1.232,0,1,1-1.831,1.649,21.552,21.552,0,0,0-16.057-7.156c-.532,0-1.066.016-1.583.065a1.231,1.231,0,0,1-1.018-.38,34.582,34.582,0,0,0-59.76,23.543,1.222,1.222,0,0,1-.845,1.163,13.214,13.214,0,0,0-5.526,3.571,1.232,1.232,0,1,1-1.8-1.672,15.68,15.68,0,0,1,5.73-3.934Z" transform="translate(-89.701 -123.496)" fill="#065367" fill-rule="evenodd"/>
        <path id="Path_2054" data-name="Path 2054" d="M624.778,354.113a13.2,13.2,0,0,1,9.549,8.509,13.008,13.008,0,0,1,.716,4.278v1.793a13.136,13.136,0,0,1-13.09,13.09,1.232,1.232,0,1,0,0,2.463,15.611,15.611,0,0,0,15.562-15.56V366.9a15.5,15.5,0,0,0-.855-5.088,15.686,15.686,0,0,0-11.345-10.1,1.232,1.232,0,0,0-.539,2.405Z" transform="translate(-512.34 -290.296)" fill="#065367" fill-rule="evenodd"/>
        <path id="Path_2055" data-name="Path 2055" d="M125.637,501.266h-5.728a13.073,13.073,0,0,1-9.764-4.4,1.232,1.232,0,1,0-1.829,1.648,15.534,15.534,0,0,0,11.6,5.213h5.728a1.232,1.232,0,1,0,0-2.463Z" transform="translate(-89.114 -409.772)" fill="#065367" fill-rule="evenodd"/>
        <path id="Path_2056" data-name="Path 2056" d="M388.241,403.6a6.419,6.419,0,1,0,6.418,6.419A6.419,6.419,0,0,0,388.241,403.6Z" transform="translate(-315.175 -333.156)" fill="#065367"/>
        <path id="Path_2057" data-name="Path 2057" d="M336.939,340.429v-7.24L331,332.018a16.405,16.405,0,0,0-1.293-3.108l3.316-4.973-5.117-5.117-4.973,3.316a16.491,16.491,0,0,0-3.11-1.292l-1.169-5.934h-7.247l-1.169,5.934a16.387,16.387,0,0,0-3.11,1.293l-4.973-3.316-5.117,5.117,3.316,4.973a16.407,16.407,0,0,0-1.293,3.108l-5.934,1.169v7.242l5.934,1.169a16.433,16.433,0,0,0,1.293,3.11l-3.316,4.971,5.117,5.119,4.973-3.316a16.5,16.5,0,0,0,3.11,1.292l1.169,5.934h7.24l1.169-5.934a16.494,16.494,0,0,0,3.11-1.292L327.9,354.8l5.117-5.119L329.7,344.71A16.473,16.473,0,0,0,331,341.6Zm-21.908,5.365a8.985,8.985,0,1,1,8.985-8.985,8.985,8.985,0,0,1-8.985,8.985Z" transform="translate(-241.964 -259.946)" fill="#04a5cf"/>
        <path id="Path_2058" data-name="Path 2058" d="M291.026,431.25c.051.435.089.873.131,1.3l.11,1.3.092,1.3c.03.435.061.873.086,1.3l-.339-.41q1.5.2,3,.433t2.992.48l.34.058.155.349.686,1.539.675,1.543.157.36-.225.349-.815,1.253-.82,1.246c-.546.834-1.1,1.658-1.662,2.484l-.1-.981,1.265,1.3c.422.429.838.873,1.257,1.3q1.251,1.307,2.484,2.634l-.78-.077,1.276-.778,1.285-.768c.855-.51,1.721-1.007,2.59-1.5l.155-.089.122.061c.251.127.5.25.754.38l.751.389c.5.257,1,.524,1.492.8-.543-.152-1.077-.326-1.618-.5l-.8-.258c-.269-.086-.534-.175-.8-.265l.278-.028c-.789.613-1.581,1.222-2.381,1.813l-1.2.89-1.21.873-.391.291-.391-.349q-1.328-1.234-2.634-2.485c-.435-.419-.873-.833-1.3-1.257l-1.293-1.265-.454-.443.349-.538c.55-.831,1.1-1.663,1.655-2.487l.836-1.239.843-1.232-.07.709-.616-1.571-.607-1.571.5.407q-1.477-.335-2.95-.7t-2.939-.737l-.349-.093.017-.318c.023-.435.056-.873.086-1.3l.092-1.3.108-1.3C290.937,432.119,290.977,431.685,291.026,431.25Z" transform="translate(-239.868 -355.98)" fill="#065367"/>
        <path id="Path_2059" data-name="Path 2059" d="M463.169,353.648c-.051-.435-.089-.873-.131-1.3l-.11-1.3-.093-1.3c-.03-.435-.061-.873-.085-1.3l.337.41q-1.5-.2-3-.435t-2.992-.478l-.34-.058-.155-.349-.686-1.538-.675-1.543-.157-.361.225-.349.813-1.253.822-1.248c.546-.833,1.1-1.656,1.66-2.484l.1.981-1.265-1.293c-.422-.429-.838-.873-1.257-1.3q-1.253-1.307-2.484-2.636l.78.079-1.278.778-1.285.768c-.855.51-1.721,1.009-2.59,1.5l-.155.087-.122-.061c-.251-.126-.5-.25-.754-.379l-.749-.394c-.5-.258-1-.524-1.492-.8.543.159,1.082.321,1.618.5l.8.257c.269.086.534.175.8.267l-.277.026q1.183-.918,2.381-1.813l1.2-.888,1.21-.881.391-.284.389.363q1.33,1.222,2.635,2.484c.433.419.873.834,1.3,1.257l1.293,1.265.454.443-.349.538c-.55.831-1.1,1.663-1.655,2.489l-.843,1.239-.843,1.232.07-.707.616,1.571.607,1.571-.5-.407q1.477.335,2.95.7t2.939.737l.349.091-.017.319c-.023.433-.056.873-.086,1.3l-.093,1.3-.108,1.3C463.258,352.78,463.217,353.213,463.169,353.648Z" transform="translate(-368.194 -275.093)" fill="#065367"/>
      </g>
    </g>
  </g>
</svg>
