<svg xmlns="http://www.w3.org/2000/svg" width="149.287" height="154" viewBox="0 0 149.287 154">
  <g id="Component_4_1" data-name="Component 4 – 1" transform="translate(0 3)">
    <text id="_1" data-name="1" transform="translate(16.5 111)" fill="none" stroke="#065367" stroke-width="3" font-size="106" font-family="Poppins-Black, Poppins" font-weight="800"><tspan x="0" y="0">1</tspan></text>
    <g id="Layer_2" data-name="Layer 2" transform="translate(21.021 6.733)">
      <g id="Layer_1" data-name="Layer 1" transform="translate(-0.021 -0.006)">
        <ellipse id="Ellipse_54" data-name="Ellipse 54" cx="49.374" cy="5.349" rx="49.374" ry="5.349" transform="translate(18.244 115.494)" fill="#81e1f7"/>
        <path id="Path_2060" data-name="Path 2060" d="M153.41,457.3l-5.75-45.488a3.516,3.516,0,0,1,3.571-4.05H199.68Z" transform="translate(-121.81 -336.455)" fill="#81e1f7"/>
        <path id="Path_2061" data-name="Path 2061" d="M148.805,451.288l-5.748-45.493a2.31,2.31,0,0,1,2.345-2.661h23.754a1.235,1.235,0,1,0,0-2.467H145.4a4.723,4.723,0,0,0-4.795,5.438l5.748,45.488a1.235,1.235,0,1,0,2.448-.31Z" transform="translate(-115.981 -330.601)" fill="#065367" fill-rule="evenodd"/>
        <path id="Path_2062" data-name="Path 2062" d="M319.293,223.295h-5.62a8.666,8.666,0,0,1,.259,2.072V232.9c0,4.323-3.183,7.86-7.075,7.86s-7.075-3.531-7.075-7.86v-7.532a8.579,8.579,0,0,1,.259-2.072h-5.62c-4.324,0-5.771-2.852-3.207-6.335l10.982-14.953c2.562-3.485,6.752-3.485,9.312,0l10.989,14.953C325.058,220.443,323.617,223.295,319.293,223.295Z" transform="translate(-239.238 -164.524)" fill="#04a5cf"/>
        <path id="Path_2063" data-name="Path 2063" d="M292.8,280.26H288.64c-2.768,0-4.547-1.067-5.286-2.537s-.554-3.532,1.084-5.762l3.3-4.489a1.235,1.235,0,1,1,1.988,1.462l-3.3,4.484c-.923,1.257-1.291,2.359-.874,3.188s1.525,1.184,3.085,1.184h5.62a1.235,1.235,0,0,1,1.2,1.53,7.325,7.325,0,0,0-.224,1.777v7.535c0,3.609,2.59,6.626,5.841,6.626s5.841-3.016,5.841-6.626a1.235,1.235,0,0,1,2.469,0c0,5.036-3.775,9.093-8.31,9.093s-8.31-4.059-8.31-9.093V281.1c0-.282.012-.563.037-.839Z" transform="translate(-233.459 -220.257)" fill="#065367" fill-rule="evenodd"/>
        <path id="Path_2064" data-name="Path 2064" d="M355.232,196.91a4.23,4.23,0,0,1,7.322,0l10.989,14.948c.923,1.257,1.291,2.359.874,3.186s-1.527,1.186-3.086,1.186a1.235,1.235,0,1,0,0,2.467c2.768,0,4.547-1.067,5.286-2.537s.554-3.532-1.084-5.762l-10.983-14.949a6.678,6.678,0,0,0-11.3,0,1.235,1.235,0,0,0,1.99,1.462Z" transform="translate(-291.276 -158.697)" fill="#065367" fill-rule="evenodd"/>
        <path id="Path_2065" data-name="Path 2065" d="M180.69,443.172h72.673l9.254-52.532H227.369a9.233,9.233,0,0,0-6.533,3.265l-6.531,8.71H194.034a5.374,5.374,0,0,0-4.991,3.982Z" transform="translate(-149.09 -322.329)" fill="#fff"/>
        <path id="Path_2066" data-name="Path 2066" d="M229.64,452.066H209.37a6.67,6.67,0,0,0-6.194,4.94L199.3,473.994a1.235,1.235,0,0,0,2.406.549l3.877-16.99a4.081,4.081,0,0,1,3.788-3.02h20.285a1.235,1.235,0,1,0,0-2.467Z" transform="translate(-164.425 -373.013)" fill="#065367" fill-rule="evenodd"/>
        <path id="Path_2067" data-name="Path 2067" d="M255.1,386.043H221.324a1.235,1.235,0,1,1,0-2.467h35.248a1.233,1.233,0,0,1,1.215,1.448l-9.254,52.532a1.236,1.236,0,0,1-1.224,1.019H174.645a1.235,1.235,0,1,1,0-2.467h71.638Z" transform="translate(-143.045 -316.499)" fill="#065367" fill-rule="evenodd"/>
        <path id="Path_2068" data-name="Path 2068" d="M457,609.878l1.983-11.258h20.285l-2,11.258Z" transform="translate(-377.082 -493.94)" fill="#81e1f7"/>
        <path id="Path_2069" data-name="Path 2069" d="M433.961,95.576a7.946,7.946,0,0,1,14.762.948,4.317,4.317,0,0,1,4.106,4.372c0,.226-23.549.156-23.549,0-.012-3.62,1.224-5.349,4.094-5.349A5,5,0,0,1,433.961,95.576Z" transform="translate(-354.209 -75.087)" fill="#04a5cf" fill-rule="evenodd"/>
        <path id="Path_2070" data-name="Path 2070" d="M170.561,6.6a11.478,11.478,0,0,0-21.323,1.369,6.235,6.235,0,0,0-5.93,6.311c0,.325,34.013.224,34.013,0,.019-5.229-1.777-7.727-5.912-7.727a7.542,7.542,0,0,0-.848.047Z" transform="translate(-118.244 0.006)" fill="#04a5cf" fill-rule="evenodd"/>
        <path id="Path_2071" data-name="Path 2071" d="M697.971,564.24l3.821,3.823a1.236,1.236,0,0,0,1.749-1.749l-3.821-3.823a1.236,1.236,0,0,0-1.749,1.749Z" transform="translate(-575.616 -463.83)" fill="#c7ceff" fill-rule="evenodd"/>
        <path id="Path_2072" data-name="Path 2072" d="M701.792,562.511l-3.821,3.823a1.236,1.236,0,0,0,1.749,1.749l3.821-3.823a1.237,1.237,0,1,0-1.749-1.749Z" transform="translate(-575.616 -463.846)" fill="#c7ceff" fill-rule="evenodd"/>
        <path id="Path_2073" data-name="Path 2073" d="M.343,270.228l3.823,3.816a1.236,1.236,0,1,0,1.749-1.749L2.09,268.481A1.237,1.237,0,0,0,.341,270.23Z" transform="translate(-20.979 -204.35)" fill="#c7ceff" fill-rule="evenodd"/>
        <path id="Path_2074" data-name="Path 2074" d="M4.174,268.473.351,272.3A1.236,1.236,0,1,0,2.1,274.044l3.819-3.824a1.237,1.237,0,1,0-1.749-1.749Z" transform="translate(-20.987 -204.342)" fill="#c7ceff" fill-rule="evenodd"/>
        <path id="Path_2075" data-name="Path 2075" d="M566.641,202.175,570.462,206a1.236,1.236,0,0,0,1.749-1.749l-3.821-3.823a1.236,1.236,0,0,0-1.749,1.749Z" transform="translate(-467.252 -165.082)" fill="#c7ceff" fill-rule="evenodd"/>
        <path id="Path_2076" data-name="Path 2076" d="M570.462,200.436l-3.821,3.826a1.236,1.236,0,1,0,1.749,1.749l3.821-3.821a1.236,1.236,0,0,0-1.749-1.749Z" transform="translate(-467.252 -165.091)" fill="#c7ceff" fill-rule="evenodd"/>
      </g>
    </g>
  </g>
</svg>
