<svg xmlns="http://www.w3.org/2000/svg" width="300" height="185" viewBox="0 0 300 185">
  <g id="HowToUSe_-_Search" data-name="HowToUSe - Search" transform="translate(-428 -1675)">
    <rect id="Rectangle_841" data-name="Rectangle 841" width="300" height="185" transform="translate(428 1675)" fill="none"/>
    <g id="HowToUSe_-_Search-2" data-name="HowToUSe - Search" transform="translate(529.998 1728.224)">
      <g id="Layer_2" data-name="Layer 2" transform="translate(0.001 -0.027)">
        <path id="Path_2214" data-name="Path 2214" d="M.975,7.141Q.754,23.131.8,39.127q.02,8,.112,16,.044,4.038.105,8.08.031,1.98.068,3.957a9.841,9.841,0,0,0,.357,3.3A3.4,3.4,0,0,0,3.784,72.59a13.809,13.809,0,0,0,3.569.234l7.923.054,16.017.109L63.33,73.2l7.923.054a40.817,40.817,0,0,0,6.538-.34,12.835,12.835,0,0,0,5.678-2.187,11.055,11.055,0,0,0,3.648-4.914,21.61,21.61,0,0,0,1.267-5.9c.231-2.377.285-4.755.37-7.132q.285-7.9.241-15.806-.082-15.854-1.467-31.66a9.752,9.752,0,0,0-.615-3.583A3.029,3.029,0,0,0,84.152.264c-2.588-.132-5.2-.1-7.788-.132q-8-.112-16-.149-16-.054-32,.214-8,.136-15.993.34C8.314.661,2.585.373.551,4.774A4.771,4.771,0,0,0,.992,9.94a.852.852,0,0,0,1.2,0,.866.866,0,0,0,0-1.2c-.965-1.175-.462-2.982.414-4.1C3.821,3.083,5.961,2.6,7.829,2.444c2.418-.217,4.874-.194,7.3-.255q3.889-.1,7.74-.17Q38.436,1.68,54,1.68q7.737,0,15.48.071,3.872.037,7.743.092L81.17,1.9l1.722.031a11.014,11.014,0,0,1,1.674.085,1.049,1.049,0,0,1,.869.6A4.147,4.147,0,0,1,85.7,3.976q.173,1.868.34,3.736.312,3.831.547,7.669.475,7.764.638,15.541.156,7.689.017,15.378-.078,3.848-.224,7.689c-.085,2.194-.143,4.415-.4,6.585-.435,3.736-1.7,7.584-5.217,9.458a14.152,14.152,0,0,1-5.583,1.42c-2.2.177-4.415.109-6.629.1l-31-.211L7.014,71.126a8.2,8.2,0,0,1-3.057-.262,2.136,2.136,0,0,1-1.134-2.038c-.088-1.236-.061-2.486-.082-3.736s-.024-2.517-.054-3.777q-.112-7.811-.16-15.65-.1-15.48.058-30.957.034-3.783.088-7.567a.85.85,0,0,0-1.7,0Z" transform="translate(-0.001 0.027)"/>
        <path id="Path_2215" data-name="Path 2215" d="M94.544,29.383c-8.28-.642-17.015,2.085-22.337,8.718a20.588,20.588,0,0,0-2.931,4.843A22.415,22.415,0,0,0,67.7,49.4a39.3,39.3,0,0,0-.115,6.925,11.237,11.237,0,0,0,1.882,5.774,14.968,14.968,0,0,0,9.747,5.774,33.765,33.765,0,0,0,6.952.408,47.253,47.253,0,0,0,6.857-.506,10.372,10.372,0,0,0,3.057-1.019,11.792,11.792,0,0,0,2.561-1.943A34.525,34.525,0,0,0,102.786,60a20.844,20.844,0,0,0,4.194-11.731,14.893,14.893,0,0,0-1.308-6.344,16.02,16.02,0,0,0-3.4-4.666A34.1,34.1,0,0,0,97.7,33.573a28.6,28.6,0,0,0-5.359-3.254,7.3,7.3,0,0,0-2.989-.581.85.85,0,0,0,0,1.7c1.96-.058,3.668,1.036,5.244,2.078,1.522,1.019,3.057,2.038,4.469,3.165a19.966,19.966,0,0,1,3.78,3.807,12.61,12.61,0,0,1,2.218,5.193,16.966,16.966,0,0,1-2.289,11.17,28.437,28.437,0,0,1-3.4,4.707,15.224,15.224,0,0,1-4.415,3.861,14.944,14.944,0,0,1-5.814,1.019,61.3,61.3,0,0,1-6.609.109c-3.705-.2-7.509-1.182-10.277-3.79a9.119,9.119,0,0,1-2.6-4.143,21.967,21.967,0,0,1-.438-6.453,21.526,21.526,0,0,1,3.026-11.255c4.157-6.524,11.754-9.8,19.308-9.937a26.515,26.515,0,0,1,2.985.092.856.856,0,0,0,.849-.849.866.866,0,0,0-.849-.849Z" transform="translate(-44.565 -19.334)"/>
        <path id="Path_2216" data-name="Path 2216" d="M157.147,131.977a122.961,122.961,0,0,1,12.362,13.785q1.6,2.089,3.118,4.245a.873.873,0,0,0,1.161.306.856.856,0,0,0,.306-1.162,125.715,125.715,0,0,0-11.972-14.6q-1.851-1.936-3.777-3.787c-.788-.757-1.99.445-1.2,1.2Z" transform="translate(-103.605 -86.184)"/>
      </g>
    </g>
  </g>
</svg>
