<svg xmlns="http://www.w3.org/2000/svg" width="300" height="185" viewBox="0 0 300 185">
  <g id="HowToUSe_-_Menu" data-name="HowToUSe - Menu" transform="translate(-1192 -1336)">
    <rect id="Rectangle_843" data-name="Rectangle 843" width="300" height="185" transform="translate(1192 1336)" fill="none"/>
    <g id="HowToUSe_-_Menu-2" data-name="HowToUSe - Menu" transform="translate(1304.899 1393)">
      <g id="Layer_2" data-name="Layer 2" transform="translate(-0.001 0)">
        <path id="Path_2196" data-name="Path 2196" d="M64.714,6.473,37.385,3.543,10.212.633,6.757.263A16.456,16.456,0,0,0,3.543.025,3.774,3.774,0,0,0,.259,3.293,27.982,27.982,0,0,0,.038,9.048V57.061c0,2.237-.028,4.474,0,6.71a3.984,3.984,0,0,0,.788,2.692,3.411,3.411,0,0,0,2.509,1c1.016.063,2.047,0,3.066,0H68.058a21.829,21.829,0,0,0,3.119-.073,2.673,2.673,0,0,0,2.177-1.525,8.894,8.894,0,0,0,.421-3.069q.18-3.354.285-6.71.421-13.506-.4-27.009-.408-6.783-1.129-13.538c-.228-2.129-.389-4.3-.8-6.4A6.084,6.084,0,0,0,69,4.711a3.725,3.725,0,0,0-4.429.4c-.712.728.4,1.848,1.12,1.12.88-.9,2.427-.452,3.252.418,1.177,1.234,1.332,3.189,1.528,4.8q.788,6.511,1.284,13.054,1,13.12.826,26.3-.076,6.558-.452,13.117c-.035.633-.019,1.531-.7,1.822a2.873,2.873,0,0,1-1.047.168H5.761a17.623,17.623,0,0,1-2.8-.054,1.4,1.4,0,0,1-1.3-1.322,19.975,19.975,0,0,1-.044-2.885V8.419c0-1.035-.022-2.069,0-3.1A7.653,7.653,0,0,1,1.9,3.208a2.275,2.275,0,0,1,.978-1.392,4.479,4.479,0,0,1,2.607-.1L31.871,4.537,58.26,7.365l6.438.69a.794.794,0,0,0,.791-.791.807.807,0,0,0-.791-.791Z" transform="translate(0.001 0)"/>
        <path id="Path_2197" data-name="Path 2197" d="M43.681,67.625c5.976-.74,11.9-1.8,17.891-2.5a68.832,68.832,0,0,1,17.6-.2,38.4,38.4,0,0,1,9.491,2.585.8.8,0,0,0,.974-.554.81.81,0,0,0-.554-.971A44.262,44.262,0,0,0,71.759,62.87a129.664,129.664,0,0,0-18.024,1.74c-3.35.5-6.7,1.016-10.054,1.433a.813.813,0,0,0-.791.791.8.8,0,0,0,.791.791Z" transform="translate(-29.321 -42.979)"/>
        <path id="Path_2198" data-name="Path 2198" d="M33.51,114.261c1.75,1.816,4.344,2.2,6.748,2.322,3.062.158,6.134.221,9.2.316l18.951.671,10.738.38c1.019.035,1.016-1.547,0-1.582l-18.634-.658-18.555-.655c-2.465-.089-5.48,0-7.33-1.924-.709-.734-1.825.383-1.117,1.117Z" transform="translate(-22.754 -77.176)"/>
        <path id="Path_2199" data-name="Path 2199" d="M45.909,162.172l16.341.256,16.423.259,9.238.146a.791.791,0,0,0,0-1.582l-16.344-.256-16.423-.259-9.235-.146a.791.791,0,0,0,0,1.582Z" transform="translate(-30.862 -109.783)"/>
      </g>
    </g>
  </g>
</svg>
