<svg xmlns="http://www.w3.org/2000/svg" width="300" height="185" viewBox="0 0 300 185">
  <g id="HowToUSe_-_BackArrow" data-name="HowToUSe - BackArrow" transform="translate(-810 -1058)">
    <rect id="Rectangle_842" data-name="Rectangle 842" width="300" height="185" transform="translate(810 1058)" fill="none"/>
    <g id="HowToUSe_-_BackArrow-2" data-name="HowToUSe - BackArrow" transform="translate(910 1119.01)">
      <g id="Layer_2" data-name="Layer 2" transform="translate(0 -0.009)">
        <path id="Path_2193" data-name="Path 2193" d="M.3,12.923q1.066,15.641.874,31.354Q1.07,52.115.647,59.953.427,63.91.132,67.867c-.153,2.019-.569,4.7,1.7,5.738,1.9.867,4.088.107,6.018-.252a57.423,57.423,0,0,1,6.836-.839,94.767,94.767,0,0,1,14.134.284c9.506.807,18.933,2.488,28.474,2.844a74.411,74.411,0,0,0,14.219-.686c2.261-.355,4.568-.807,6.4-2.264A10.928,10.928,0,0,0,81.154,67.5a51.9,51.9,0,0,0,1.777-6.946c.473-2.414.821-4.856,1.066-7.3a100.765,100.765,0,0,0,.3-14.831c-.238-5-.764-9.978-1.422-14.93q-.533-3.75-1.113-7.5c-.355-2.4-.675-4.835-1.159-7.216a7.274,7.274,0,0,0-3.37-5.144,15.182,15.182,0,0,0-5.741-1.593C66.348,1.373,61.182.89,56,.548A256.717,256.717,0,0,0,24.8.388c-4.682.26-9.573.423-14.027,2.03a15.075,15.075,0,0,0-9.182,8.3,10.035,10.035,0,0,0-.519,5.741.892.892,0,0,0,1.066.619.906.906,0,0,0,.629-1.088C2.012,12.265,4.22,8.6,7.071,6.368c3.391-2.652,7.924-3.427,12.086-3.807,4.952-.455,9.954-.64,14.93-.736q7.586-.149,15.172.153T64.4,3.023c2.417.238,4.842.494,7.248.821a11.377,11.377,0,0,1,5.219,1.667c1.671,1.223,1.98,3.317,2.286,5.226.38,2.382.761,4.763,1.12,7.149.711,4.82,1.372,9.655,1.806,14.514.857,9.545.9,19.26-1.066,28.677a44.57,44.57,0,0,1-1.753,6.495,7.852,7.852,0,0,1-3.4,4.376,17.648,17.648,0,0,1-6.239,1.5,66.837,66.837,0,0,1-6.9.483c-9.271.2-18.485-1.234-27.657-2.279-9.132-1.042-18.418-1.713-27.518-.046-.956.178-1.905.437-2.872.558a3.531,3.531,0,0,1-2.222-.245c-.711-.462-.711-1.443-.665-2.229.071-1.194.181-2.389.267-3.58Q2.6,58.46,2.83,50.8q.448-15.257-.309-30.486-.185-3.7-.441-7.391a.906.906,0,0,0-.889-.889.9.9,0,0,0-.889.889Z" transform="translate(0 0.009)"/>
        <path id="Path_2194" data-name="Path 2194" d="M116.835,104.552a2.894,2.894,0,0,1-2.272.942c-1.33.092-2.677.028-4.006.025h-8.692l-17.38-.021H74.553a.889.889,0,0,0,0,1.777h36.089a35.971,35.971,0,0,0,4.422-.075,4.3,4.3,0,0,0,3.306-1.777c.622-.96-.914-1.852-1.536-.9Z" transform="translate(-47.498 -67.102)"/>
        <path id="Path_2195" data-name="Path 2195" d="M53.893,69.089l-13.821,12.8c-.583.54-1.17,1.066-1.749,1.625a5.333,5.333,0,0,0-1.18,1.422,2.786,2.786,0,0,0,.97,3.509c1.187.981,2.467,1.866,3.7,2.783s2.488,1.834,3.729,2.744q4.23,3.093,8.5,6.121a.889.889,0,1,0,.9-1.532q-7.2-5.1-14.266-10.387c-.508-.38-1.045-.739-1.518-1.166-.3-.27-.633-.6-.533-1.031a2.774,2.774,0,0,1,.949-1.212l1.621-1.5,6.555-6.068,7.394-6.847C55.99,69.569,54.728,68.314,53.893,69.089Z" transform="translate(-23.751 -44.368)"/>
      </g>
    </g>
  </g>
</svg>
