<svg xmlns="http://www.w3.org/2000/svg" width="300" height="185" viewBox="0 0 300 185">
  <g id="HowToUSe_-_Button" data-name="HowToUSe - Button" transform="translate(-428 -1336)">
    <rect id="Rectangle_841" data-name="Rectangle 841" width="300" height="185" transform="translate(428 1336)" fill="none"/>
    <g id="HowToUSe_-_Button-2" data-name="HowToUSe - Button" transform="translate(485.979 1389.01)">
      <g id="Layer_2" data-name="Layer 2" transform="translate(0.022 -0.01)">
        <path id="Path_2160" data-name="Path 2160" d="M146.018,4.624,92.094,4.5,64.97,4.433c-8.91,0-17.82.1-26.73-.134A119.973,119.973,0,0,1,23.234,3.071C18.32,2.327,13.458,1.283,8.6.245A.974.974,0,0,0,7.527.716C-.632,17.391,3.708,36.42,3,54.176A62.369,62.369,0,0,1,.672,69.24a.961.961,0,0,0,1.171,1.171c14.746-2.578,29.727-.153,44.429,1.54q22.472,2.6,45.1,3.354,22.529.751,45.071-.3,11.335-.535,22.65-1.534c1.846-.159,3.71-.286,5.556-.522a3.622,3.622,0,0,0,3.29-2.259,17.833,17.833,0,0,0,.5-4.92q.162-2.864.286-5.728a411.982,411.982,0,0,0-.636-45.549q-.191-2.794-.42-5.581a.98.98,0,0,0-.955-.955,258.341,258.341,0,0,1-34.545-4.3c-1.2-.235-1.718,1.6-.509,1.839a262.842,262.842,0,0,0,35.054,4.366l-.955-.955a412.553,412.553,0,0,1,1.273,44.88q-.153,5.677-.465,11.347c-.045.872-.1,1.75-.153,2.628A7.1,7.1,0,0,1,166.1,70.2c-.305.681-1.044.808-1.712.9-.948.121-1.909.185-2.858.274q-11.061,1.018-22.154,1.6-22.275,1.165-44.55.547t-44.48-3c-14.479-1.585-29.116-4.207-43.678-2.692q-2.679.274-5.333.745l1.171,1.171c5.193-17.527.229-35.869,2.546-53.7A45.956,45.956,0,0,1,9.175,1.652l-1.082.439C16.78,3.943,25.442,5.63,34.333,6.062s18,.255,27,.274l54.255.127,30.434.07a.955.955,0,1,0,0-1.909Z" transform="translate(-0.642 -0.22)" fill="#3f3f3f"/>
        <path id="Path_2161" data-name="Path 2161" d="M32.27,41.889a118.159,118.159,0,0,0-1.61,18.768.955.955,0,1,0,1.909,0A113.984,113.984,0,0,1,34.116,42.4a.993.993,0,0,0-.694-1.177.974.974,0,0,0-1.177.636Z" transform="translate(-11.556 -15.115)" fill="#3f3f3f"/>
        <path id="Path_2162" data-name="Path 2162" d="M26.842,42.007a1.438,1.438,0,0,1-.229-.337,1.2,1.2,0,0,1-.083-.535,2.272,2.272,0,0,1,.369-1.146,5.2,5.2,0,0,1,2.444-1.623c2.234-.9,4.748-1.973,7.217-1.629a4.78,4.78,0,0,1,2.546,1.184A4.054,4.054,0,0,1,39.977,39a3.144,3.144,0,0,1,.356,1.076,2.845,2.845,0,0,1-.872,2.259A7.293,7.293,0,0,1,37.031,43.9a21.638,21.638,0,0,1-8.172,1.6l.248,1.909a10.781,10.781,0,0,1,8.032,0,5.768,5.768,0,0,1,3.087,2.278,4.314,4.314,0,0,1-.407,3.538,9.9,9.9,0,0,1-5.168,4.608,12.162,12.162,0,0,1-7.637.471,19.411,19.411,0,0,1-8.324-4.671.986.986,0,0,0-1.356,0,.967.967,0,0,0,0,1.349c4.614,4.207,11.239,7.1,17.438,4.837a12.092,12.092,0,0,0,6.472-5.289,7.23,7.23,0,0,0,1.006-4.78,5.617,5.617,0,0,0-3.182-3.577,12.493,12.493,0,0,0-10.482-.636.961.961,0,0,0-.687,1.044.948.948,0,0,0,.942.827A23.509,23.509,0,0,0,37.6,45.743c2.259-.942,4.64-2.654,4.646-5.365,0-2.6-2.272-4.729-4.659-5.346-2.953-.764-6.04.426-8.751,1.521a6.731,6.731,0,0,0-3.7,2.692,3.519,3.519,0,0,0,.35,4.137c.853.891,2.2-.458,1.356-1.349Z" transform="translate(-6.611 -12.789)" fill="#3f3f3f"/>
        <path id="Path_2163" data-name="Path 2163" d="M63.727,53.254l-1.451,4.983c-.477,1.636-1.031,3.271-1.406,4.964a5.618,5.618,0,0,0,.56,4.576,3.71,3.71,0,0,0,1.776,1.387,3.819,3.819,0,0,0,2.393-.1A19.659,19.659,0,0,0,77,58.956a19.131,19.131,0,0,0,2-8.483.961.961,0,0,0-1.877-.248A41.367,41.367,0,0,0,76.4,67.351a.974.974,0,0,0,1.177.636A3.087,3.087,0,0,0,79.434,66.6a.955.955,0,0,0-1.648-.961,1.075,1.075,0,0,1-.713.5l1.171.636a39.1,39.1,0,0,1,.719-16.114l-1.871-.191a17.82,17.82,0,0,1-5.021,12.283A17.381,17.381,0,0,1,66.5,66.7a13.659,13.659,0,0,1-1.636.6,1.47,1.47,0,0,1-1.445-.185,2.406,2.406,0,0,1-.745-1.126,4.016,4.016,0,0,1-.045-1.865c.159-.846.426-1.674.668-2.5l.757-2.648,1.521-5.212A.957.957,0,0,0,63.727,53.254Z" transform="translate(-22.456 -18.156)" fill="#3f3f3f"/>
        <path id="Path_2164" data-name="Path 2164" d="M96.851,43.5a48.1,48.1,0,0,0-2.826,12.327,19.093,19.093,0,0,0,.573,6.1,15.529,15.529,0,0,0,1.139,2.921,3.566,3.566,0,0,0,2.215,2.1,3.258,3.258,0,0,0,3.074-1.126,6.8,6.8,0,0,0,1.273-3.3.986.986,0,0,0-.668-1.158.967.967,0,0,0-1.177.636,5.645,5.645,0,0,1-.808,2.457,1.687,1.687,0,0,1-.681.535,1.037,1.037,0,0,1-.681.057c-.547-.185-.955-1.216-1.209-1.788a12.73,12.73,0,0,1-.815-2.495,23.1,23.1,0,0,1,.566-10.6c.509-2.087,1.158-4.137,1.839-6.173a.955.955,0,1,0-1.839-.509Z" transform="translate(-34.578 -15.686)" fill="#3f3f3f"/>
        <path id="Path_2165" data-name="Path 2165" d="M96.658,54.19l-8.273.49a.98.98,0,0,0-.955.955.961.961,0,0,0,.955.955l8.273-.49a.955.955,0,1,0,0-1.909Z" transform="translate(-32.196 -19.842)" fill="#3f3f3f"/>
        <path id="Path_2166" data-name="Path 2166" d="M112.932,46.581A23.49,23.49,0,0,0,109.5,60.4,14.742,14.742,0,0,0,111.17,67a5.588,5.588,0,0,0,2.113,2.138,3.564,3.564,0,0,0,3.22,0,6.81,6.81,0,0,0,1.661-1.228c.509-.465,1-.955,1.457-1.464a23.81,23.81,0,0,0,2.546-3.449.955.955,0,0,0-1.648-.961,18.755,18.755,0,0,1-4.251,5.028,2.546,2.546,0,0,1-1.152.566h-.146a2.305,2.305,0,0,1-.293,0h-.121a2.286,2.286,0,0,1-.274-.089c.165.064-.115-.064-.121-.064l-.248-.153a3.228,3.228,0,0,1-.356-.305,4.4,4.4,0,0,1-.77-1,12.679,12.679,0,0,1-1.362-5.454,21.6,21.6,0,0,1,3.182-12.983.956.956,0,0,0-1.648-.967Z" transform="translate(-40.203 -16.924)" fill="#3f3f3f"/>
        <path id="Path_2167" data-name="Path 2167" d="M116.916,52.877,105.225,51.84a.961.961,0,0,0-.955.955.974.974,0,0,0,.955.955l11.691,1.037a.961.961,0,0,0,.955-.955.974.974,0,0,0-.955-.955Z" transform="translate(-38.319 -18.988)" fill="#3f3f3f"/>
        <path id="Path_2168" data-name="Path 2168" d="M143.65,47.745c-3.819,0-7.936,1.012-10.571,3.914-2.3,2.546-3.138,6.676-1.273,9.7,1.986,3.271,6.453,4.073,9.928,3.182a10.546,10.546,0,0,0,7.491-6.905,10.959,10.959,0,0,0-2.813-11.016c-.9-.84-2.247.509-1.349,1.356a8.439,8.439,0,0,1,2.285,3.659,9.279,9.279,0,0,1,.325,4.3,8.1,8.1,0,0,1-1.75,3.869,9.018,9.018,0,0,1-3.43,2.482,8.91,8.91,0,0,1-4.359.636.961.961,0,0,1-.4-.051c-.159-.051-.331-.057-.49-.1a8.629,8.629,0,0,1-1.273-.382,5.639,5.639,0,0,1-2.056-1.381,4.786,4.786,0,0,1-.942-1.521,5.142,5.142,0,0,1-.306-2.024,7.071,7.071,0,0,1,1.273-3.889,8.834,8.834,0,0,1,4.073-3,16.031,16.031,0,0,1,5.607-.955.955.955,0,0,0,0-1.909Z" transform="translate(-47.958 -16.993)" fill="#3f3f3f"/>
        <path id="Path_2169" data-name="Path 2169" d="M164.758,48.6l-1.47,16.961c-.089,1.076,1.642,1.273,1.909.255a31.185,31.185,0,0,1,5.06-11.22,30.02,30.02,0,0,1,8.91-8.318l.223-.134c.1-.051.153,0,.045,0l-.255-.089c-.045,0,0,0,0,.064s.07.318.051.21c.089.586.108,1.184.14,1.776.064,1.209.064,2.425.045,3.64-.045,2.425-.165,4.856-.051,7.281a22.274,22.274,0,0,0,1.343,7.1,5.409,5.409,0,0,0,1.909,2.686,4.1,4.1,0,0,0,3.558.083,19.093,19.093,0,0,0,9.966-7.624c.293-.439.566-.891.815-1.356.586-1.082-1.056-2.043-1.648-.961a17.075,17.075,0,0,1-8.91,7.8,12.5,12.5,0,0,1-1.572.5,1.642,1.642,0,0,1-1.216-.1,2.45,2.45,0,0,1-.776-.916,8.133,8.133,0,0,1-.566-1.368,22.841,22.841,0,0,1-1.05-7c-.051-2.431.089-4.862.1-7.293a34.674,34.674,0,0,0-.127-3.634,4.99,4.99,0,0,0-.35-1.782,1.623,1.623,0,0,0-1.629-.916,3.7,3.7,0,0,0-1.559.713c-.452.286-.891.586-1.324.891a28.311,28.311,0,0,0-2.546,2.017,32.457,32.457,0,0,0-4.309,4.6,33.094,33.094,0,0,0-5.728,11.3c-.146.516-.274,1.031-.388,1.547l1.871.255L166.668,48.6a.955.955,0,0,0-1.909,0Z" transform="translate(-59.775 -16.22)" fill="#3f3f3f"/>
      </g>
    </g>
  </g>
</svg>
