<svg xmlns="http://www.w3.org/2000/svg" width="300" height="185" viewBox="0 0 300 185">
  <g id="HowToUSe_-_RadioInput" data-name="HowToUSe - RadioInput" transform="translate(-1192 -1058)">
    <rect id="Rectangle_843" data-name="Rectangle 843" width="300" height="185" transform="translate(1192 1058)" fill="none"/>
    <g id="HowToUSe_-_RadioInput-2" data-name="HowToUSe - RadioInput" transform="translate(1251.982 1121)">
      <g id="Layer_2" data-name="Layer 2" transform="translate(0.019)">
        <path id="Path_2144" data-name="Path 2144" d="M19.518,2.165A9.631,9.631,0,0,0,11.139,1.6a13.946,13.946,0,0,0-6.45,5.508A15.264,15.264,0,0,0,1.92,15.742a11.045,11.045,0,0,0,2.945,6.973,12.245,12.245,0,0,0,6.421,3.748,12.407,12.407,0,0,0,7.724-.935,14.388,14.388,0,0,0,8.328-13.143,12.952,12.952,0,0,0-2.945-8.1,11.906,11.906,0,0,0-6.7-4.072A11.538,11.538,0,0,0,15.623,0a1.1,1.1,0,0,0,0,2.209,9.381,9.381,0,0,1,5.986,2.334,10.308,10.308,0,0,1,3.372,6.089A12.127,12.127,0,0,1,19.65,22.686a10.964,10.964,0,0,1-6.163,1.833A9.793,9.793,0,0,1,7.8,22.436,9.572,9.572,0,0,1,4.35,17.281a8.247,8.247,0,0,1-.11-3.38,13.85,13.85,0,0,1,1.281-3.814,13.843,13.843,0,0,1,4.558-5.456,8.284,8.284,0,0,1,6.737-1.266,6.384,6.384,0,0,1,1.605.736A1.106,1.106,0,0,0,19.54,2.194Z" transform="translate(-0.52)" fill="#3f3f3f"/>
        <path id="Path_2145" data-name="Path 2145" d="M16.5,15.664l-.508,2.209a1.112,1.112,0,0,0,1.355,1.355,2.526,2.526,0,0,0,1.782-2.945,1.112,1.112,0,0,0-1.046-.817,2.761,2.761,0,0,0-2.526,2.025,1.119,1.119,0,0,0,1.362,1.362,2.968,2.968,0,0,0,1.4-4.83,1.127,1.127,0,0,0-1.738.221,5.25,5.25,0,0,0-.589,4.234,1.06,1.06,0,0,0,.736.736,3.416,3.416,0,0,0,1.8-.155A4,4,0,0,0,20,18.072a4.352,4.352,0,0,0,1.215-3.1,3.468,3.468,0,0,0-.508-1.671,1.34,1.34,0,0,0-.736-.641,1.473,1.473,0,0,0-.567,0,3.564,3.564,0,0,0-.913.206A4.19,4.19,0,0,0,16.154,15.4a3.836,3.836,0,0,0-.214,1.679,3.682,3.682,0,0,0,.832,2,1.112,1.112,0,0,0,1.333.169,6.509,6.509,0,0,0,3.343-3.306,1.185,1.185,0,0,0-.177-1.34,2.776,2.776,0,0,0-4.771,1.73,3.048,3.048,0,0,0,1.752,2.739,2.886,2.886,0,0,0,1.937.2,3.07,3.07,0,0,0,1.473-.891,3.154,3.154,0,0,0-1.694-5.3A2.614,2.614,0,0,0,17.1,14.4a2.85,2.85,0,0,0,.125,2.857,2.283,2.283,0,0,0,1.76,1.009,2.393,2.393,0,0,0,1.664-.641,2.334,2.334,0,0,0,.295-3.336,1.112,1.112,0,0,0-1.568,0,1.134,1.134,0,0,0,0,1.561c.11.11-.162-.236,0,0s-.074-.265,0-.059,0-.25,0-.081v.1c0,.169.052-.221,0-.125a.92.92,0,0,0-.052.191c0,.1.066-.147.059-.147l-.044.1c0,.059-.088.118-.11.177s.169-.191.1-.118a1.046,1.046,0,0,0-.088.1c-.088.088-.243.147,0,0l-.147.1-.1.044c-.081.059.155-.059.147-.059s-.331.066-.1,0-.236,0,.044,0h-.052c-.052,0,.25.125.118.044a.493.493,0,0,0-.088-.044h0L19,15.988c-.074-.074,0-.11.081.1,0-.044-.059-.1-.088-.147-.11-.191.066.221,0,.059a.769.769,0,0,1-.059-.214c-.052-.228,0,.272,0,0a1.414,1.414,0,0,0,0-.177.42.42,0,0,1,0-.1s-.059.309,0,.14l.044-.206v-.1c0-.029.088-.081-.052.125,0-.052.052-.11.081-.162a.56.56,0,0,0,.059-.081c.044-.088-.1.125-.1.118a1.068,1.068,0,0,0,.162-.155c.088-.1-.214.133-.1.081l.088-.059c.2-.118-.191.052,0,0a1.156,1.156,0,0,0,.228-.059h.214c.11,0,.081.066-.11,0a1.973,1.973,0,0,0,.2.052l.206.066c-.221-.037-.184-.088-.1-.037l.14.074c.037,0,.272.191.118.066s.037,0,.074.074a1,1,0,0,0,.162.184s-.125-.2-.074-.1.059.081.081.125l.044.191c.052.081,0,.118,0-.1,0,.066.052.133.066.2a.347.347,0,0,1,0,.125v.133a.839.839,0,0,0-.059.243l-.044.118c0,.118-.066,0,.044-.088a1.34,1.34,0,0,0-.118.228l-.066.1c-.052.088-.1.059.059-.066-.052.044-.1.118-.147.162s-.14.1-.162.155c.059-.118.184-.133.081-.059l-.133.081-.11.059c-.081.059.11-.044.125-.052a1.274,1.274,0,0,0-.236.081.545.545,0,0,0-.125,0h-.155c.221,0,.214.044.11,0l-.125-.037H19.21c-.133,0,.206.1.088,0l-.191-.11a.574.574,0,0,0-.11-.074l.1.074-.044-.044-.162-.155c-.118-.133.044.052.052.074a.876.876,0,0,0-.066-.11c-.037-.044-.081-.191-.125-.221s.074.228.052.118a.6.6,0,0,0-.052-.147.692.692,0,0,1,0-.118c-.052-.184,0,.2,0,.074a.353.353,0,0,0,0-.088v.037a.788.788,0,0,0,.059-.236c.044-.155-.037.11-.052.118a.442.442,0,0,0,.066-.11c.1-.2-.184.191,0,0,.044-.052.11-.1.155-.147-.162.184-.184.133-.1.081l.118-.074.066-.037c.11-.052.191,0-.074,0l.206-.059c.052,0,.339-.066.11-.037s.066,0,.118,0h-.029s.2.052.221.059c.206.052-.236-.133,0,0l.066.037c.162.088-.052,0-.074-.066a2.209,2.209,0,0,0,.177.191l-.221-1.34a5.581,5.581,0,0,1-.493.9.957.957,0,0,1-.169.243l.081-.11-.088.11c-.11.133-.228.258-.346.376s-.258.236-.383.346.2-.14,0,0a2.858,2.858,0,0,1-.243.169,5.508,5.508,0,0,1-.9.479l1.34.177c.236.295,0-.052-.074-.14l-.066-.14c.147.25.066.169,0,.066a1.133,1.133,0,0,1-.1-.361c-.029-.125,0,.287,0,.081v-.5c0-.258-.052.25,0,.052a1.525,1.525,0,0,0,0-.162,1.11,1.11,0,0,1,.1-.339,1.841,1.841,0,0,0,.066-.184c0,.1-.1.243,0,.066l.155-.287.1-.162c.059-.088.206-.206,0,0,.074-.074.14-.162.214-.236l.14-.133c.074-.066.243-.147,0,0l.265-.177.14-.074c.162-.088-.287.1,0,0a2.437,2.437,0,0,1,.309-.088c.2-.044,0,0-.081,0a1.149,1.149,0,0,0,.221,0l-.957-.545a1.915,1.915,0,0,1,.206.331c.088.177,0,0,0-.074,0,.074.052.14.066.206a1.178,1.178,0,0,1,.037.155c.059.258,0-.14,0-.059v.346a1.678,1.678,0,0,1,0,.191c0,.25.052-.258,0-.052a3.328,3.328,0,0,1-.081.346,1.656,1.656,0,0,1-.059.177c-.037.1-.125.221,0-.059-.066.118-.11.236-.177.346s-.155.214-.214.324c.044-.088.155-.191,0-.052a.84.84,0,0,1-.11.125,3.137,3.137,0,0,1-.28.258c-.147.133.214-.14.052-.037l-.177.118-.287.147c.3-.169.118-.052,0,0l-.147.044h-.133c-.118,0-.545-.037-.147,0l.744.854c-.037-.125-.066-.25-.1-.383V17.3a2.32,2.32,0,0,1,0-.39,1.8,1.8,0,0,1,0-.2V16.7a1.149,1.149,0,0,1,.081-.383,2.8,2.8,0,0,1,.11-.376l.044-.11c0-.081,0-.052-.037.081a.736.736,0,0,1,.081-.177c.066-.125.14-.25.214-.376l-1.73.228.074.074c.074.088.044.059-.074-.1a1.385,1.385,0,0,0,.1.177c.088.162-.1-.287,0,0a.31.31,0,0,0,.052.206c0-.214-.037-.258,0-.14s0,.066,0,.1v.214c0,.191.059-.309,0,0a1.546,1.546,0,0,1-.044.177l-.066.177c.1-.331.052-.11,0,0l-.184.11c.14-.272.1-.11,0,0l-.155.14c.228-.228.11-.081,0,0-.236.133.206-.059,0,0l-.206.052,1.414,1.281a.736.736,0,0,0,.066-.191c-.074.155-.081.184,0,.074l.037-.052h0s.147-.147.169-.162l-.1.066.088-.059c.044,0,.25-.1.081-.052s.052,0,.088,0c.272-.066-.214,0,0,0l-1.068-.81c-.059-.339,0-.088,0,0s.066-.287,0-.044a.368.368,0,0,1,0,.1c0,.11,0,.081.044-.081a.736.736,0,0,0-.1.169c-.088.184.169-.162,0,0,0,0-.133.1-.14.133.14-.1.162-.125.066-.059h-.059c-.1.052-.074.044.088,0l-.125.037,1.362,1.362.508-2.209a1.1,1.1,0,1,0-2.128-.589Z" transform="translate(-4.107 -3.331)" fill="#3f3f3f"/>
        <path id="Path_2146" data-name="Path 2146" d="M17.176,49.641a15.214,15.214,0,0,0-15.1,7.083A13.254,13.254,0,0,0,.086,65.147,15.463,15.463,0,0,0,11.131,78a12.827,12.827,0,0,0,9.992-1.325,16.6,16.6,0,0,0,6.31-8.018,15.661,15.661,0,0,0,.7-9.756,11.914,11.914,0,0,0-5.3-7.054A11.045,11.045,0,0,0,14.6,50.37a9.411,9.411,0,0,0-2.018.736A1.106,1.106,0,1,0,13.7,53.013a8,8,0,0,1,6.627,0,9.756,9.756,0,0,1,5.154,4.845c2.445,5.228.2,11.928-3.88,15.713a10.389,10.389,0,0,1-8.342,2.592,12.392,12.392,0,0,1-6.627-3.188A13.327,13.327,0,0,1,2.685,66.6a10.721,10.721,0,0,1-.346-3.682,11.472,11.472,0,0,1,.788-3.49,13.254,13.254,0,0,1,11.781-7.82,11.045,11.045,0,0,1,1.716.14,1.141,1.141,0,0,0,1.362-.736,1.119,1.119,0,0,0-.773-1.362Z" transform="translate(-0.019 -13.038)" fill="#3f3f3f"/>
        <path id="Path_2147" data-name="Path 2147" d="M55.889,10.338A60.812,60.812,0,0,0,51.472,24.4a1.134,1.134,0,0,0,.736,1.362,1.112,1.112,0,0,0,1.355-.773,52.182,52.182,0,0,1,2.8-9.469A44.282,44.282,0,0,1,60.779,7a7,7,0,0,1,2.643-2.511,2.3,2.3,0,0,1,2.805.677,3.2,3.2,0,0,1,.685,1.473,3.681,3.681,0,0,1-.118,1.723,5.927,5.927,0,0,1-2.371,3.063c-2.688,1.848-6.1,2.062-9.255,2.209a1.119,1.119,0,0,0-.78,1.885c5.294,6.089,14.483,8.1,22.023,5.544a19,19,0,0,0,6.03-3.365,1.112,1.112,0,0,0,0-1.561c-2.511-2.26-5.972-.839-8.379.839a5.839,5.839,0,0,0-1.775,1.59,1.907,1.907,0,0,0,.449,2.467,6.736,6.736,0,0,0,4.661.965,9.27,9.27,0,0,0,4.985-2.1l-1.819-.81.162,3.608a1.119,1.119,0,0,0,.81,1.068,2.71,2.71,0,0,0,2.621-.825,1.134,1.134,0,0,0,0-1.561,1.112,1.112,0,0,0-1.561,0,.464.464,0,0,1-.479.25l.817,1.068-.162-3.608a1.119,1.119,0,0,0-1.885-.78,6.789,6.789,0,0,1-5.743,1.325c-.295-.066-.685-.272-.891-.295,0,.059,0,0-.074-.059a.346.346,0,0,1,.1.228c-.081.236-.074.265,0,.088,0,.037,0,0,.044,0a7.635,7.635,0,0,1,1.613-1.178,10.205,10.205,0,0,1,1.819-.928,4.587,4.587,0,0,1,1.811-.339,2.209,2.209,0,0,1,1.347.545V16.1c-5.515,4.558-13.99,4.941-20.19,1.59a16.2,16.2,0,0,1-4.742-3.777l-.78,1.892c3.313-.147,6.826-.412,9.756-2.113S70.2,8.585,68.827,5.22a4.889,4.889,0,0,0-3.52-3.078,5.4,5.4,0,0,0-4.536,1.532,16.251,16.251,0,0,0-3.034,4.05,51.543,51.543,0,0,0-2.5,4.823A53.677,53.677,0,0,0,51.42,24.4l2.128.589a58.464,58.464,0,0,1,4.226-13.533,1.141,1.141,0,0,0-.4-1.517,1.119,1.119,0,0,0-1.473.4Z" transform="translate(-13.572 -0.552)" fill="#3f3f3f"/>
        <path id="Path_2148" data-name="Path 2148" d="M101.262,18.7a8.666,8.666,0,0,0-4.168,1.937,1.1,1.1,0,0,0,.221,1.73c3.026,1.421,6.524.309,8.836-1.944,2.481-2.43,3.52-5.891,4.543-9.116l2.04-6.421L110.606,4.3l-2.9,17.392a1.141,1.141,0,0,0,.736,1.362,1.119,1.119,0,0,0,1.4-.773L112.727,4.89A1.1,1.1,0,0,0,110.6,4.3l-1.657,5.206c-.493,1.554-.965,3.122-1.539,4.646-.965,2.54-2.467,5.1-5.022,6.192a4.882,4.882,0,0,1-3.954.118l.228,1.738a6.575,6.575,0,0,1,3.2-1.392,1.095,1.095,0,1,0-.626-2.1Z" transform="translate(-25.531 -0.929)" fill="#3f3f3f"/>
        <path id="Path_2149" data-name="Path 2149" d="M120.847,20.8a8.475,8.475,0,0,0-.67,2.209,9.057,9.057,0,0,0,0,2.562,1.1,1.1,0,0,0,2.018.265,1.311,1.311,0,0,0,.11-.854v.236a7.518,7.518,0,0,1,0-1.907V23.6a7.105,7.105,0,0,1,.2-.972c.044-.162.088-.317.147-.471l.074-.2.052-.133q-.1.236,0,.066a1.252,1.252,0,0,0,.11-.847,1.149,1.149,0,0,0-.508-.663,1.119,1.119,0,0,0-1.517.4Z" transform="translate(-31.679 -5.337)" fill="#3f3f3f"/>
        <path id="Path_2150" data-name="Path 2150" d="M125.084,12.489a1.1,1.1,0,1,0-1.1-1.1,1.1,1.1,0,0,0,1.1,1.1Z" transform="translate(-32.705 -2.711)" fill="#3f3f3f"/>
        <path id="Path_2151" data-name="Path 2151" d="M141.823,15.883c-1.973-2.275-5.265-1.252-7.5,0a15.375,15.375,0,0,0-3.284,2.474A5.154,5.154,0,0,0,129.35,22.3a5.22,5.22,0,0,0,2.341,3.777,8.416,8.416,0,0,0,4.565,1.252,8.74,8.74,0,0,0,4.779-.869,6.023,6.023,0,0,0,2.548-3.24c1.244-3.439-.434-6.907-2.032-9.9-.67-1.252-2.577-.14-1.907,1.112a24.776,24.776,0,0,1,1.686,3.615,9.829,9.829,0,0,1,.434,1.767,6.929,6.929,0,0,1,0,1.561,4.69,4.69,0,0,1-1.134,2.614,4.212,4.212,0,0,1-2.945,1.127c-2.106.11-5.051-.052-5.986-2.283a2.356,2.356,0,0,1,.427-2.393,10.183,10.183,0,0,1,2.511-2.15,9.469,9.469,0,0,1,3.24-1.473,2.209,2.209,0,0,1,2.371.626,1.1,1.1,0,0,0,1.561,0,1.119,1.119,0,0,0,0-1.561Z" transform="translate(-34.121 -3.366)" fill="#3f3f3f"/>
        <path id="Path_2152" data-name="Path 2152" d="M162.757,13.381a117.43,117.43,0,0,1-3.034,14.609,1.112,1.112,0,0,0,2.135.589,119.067,119.067,0,0,0,3.034-14.609,1.141,1.141,0,0,0-.773-1.355,1.119,1.119,0,0,0-1.362.736Z" transform="translate(-42.125 -3.316)" fill="#3f3f3f"/>
        <path id="Path_2153" data-name="Path 2153" d="M55.141,61.659,50.5,80.994l2.209.295c.6-6.229,1.362-13.136,6.126-17.672a11.546,11.546,0,0,1,3.431-2.3,4.418,4.418,0,0,1,1.738-.4,1.068,1.068,0,0,1,1.119.677,4.491,4.491,0,0,1,.125,1.885,7.863,7.863,0,0,1-.457,1.959,9.138,9.138,0,0,1-2.209,3.387c-2.481,2.386-6.06,3.166-9.4,2.945a1.119,1.119,0,0,0-1.068.81,1.134,1.134,0,0,0,.508,1.244A52.212,52.212,0,0,0,62.924,79.47a50.5,50.5,0,0,0,5.441,1.878,16.759,16.759,0,0,0,2.989.692,2.928,2.928,0,0,0,2.592-1.392l4.595-5.692a1.127,1.127,0,0,0,0-1.561c-2.732-2.481-6.943-.839-9.388,1.266a3.5,3.5,0,0,0-1.362,2.29,2.813,2.813,0,0,0,1.473,2.459,6.77,6.77,0,0,0,5.493.368,18.864,18.864,0,0,0,5.633-3.269l-1.62-1.252-1.421,4.33a1.1,1.1,0,1,0,2.128.589l1.384-4.337c.28-.847-.847-1.848-1.62-1.244-2.091,1.613-4.852,3.777-7.687,3.321a2.386,2.386,0,0,1-1.473-.663.331.331,0,0,1,0-.324,1.686,1.686,0,0,1,.4-.574,8.151,8.151,0,0,1,3.181-1.826,4.609,4.609,0,0,1,1.885-.28,2.408,2.408,0,0,1,1.473.6V73.3l-3.932,4.749-.884,1.156c-.177.214-.368.523-.611.545a3.519,3.519,0,0,1-1.185-.228L69,79.154A50.069,50.069,0,0,1,58.955,75.1a51.9,51.9,0,0,1-5.316-3.291l-.552,2.062a14.594,14.594,0,0,0,10.22-2.945,10.642,10.642,0,0,0,4.087-8.9,3.836,3.836,0,0,0-1.075-2.548,3.52,3.52,0,0,0-2.518-.832,9.116,9.116,0,0,0-4.587,1.775,17.605,17.605,0,0,0-6.148,7.842c-1.745,4.109-2.209,8.593-2.607,12.989-.118,1.244,1.878,1.473,2.165.295l4.646-19.3C57.6,60.863,55.473,60.274,55.141,61.659Z" transform="translate(-13.317 -15.462)" fill="#3f3f3f"/>
        <path id="Path_2154" data-name="Path 2154" d="M96.8,74.592c-1.826-.125-4.771.574-4.631,2.945a2.408,2.408,0,0,0,1.856,2.209,4.867,4.867,0,0,0,3.1-.412,9.778,9.778,0,0,0,2.555-1.863,18.157,18.157,0,0,0,2.268-2.548,18.658,18.658,0,0,0,2.945-6.126,18.224,18.224,0,0,0,.42-7.746,1.1,1.1,0,0,0-1.215-.8,1.127,1.127,0,0,0-.957,1.082l-2.047,20.7a1.1,1.1,0,1,0,2.209,0l2.047-20.7-2.209.295A16.2,16.2,0,0,1,101.092,72.1a15.816,15.816,0,0,1-3.38,4.168,11.692,11.692,0,0,1-.965.736,3.982,3.982,0,0,1-.449.265l-.191.1c.169-.074-.206.074-.25.088-.169.059-.353.1-.53.14h-.515s-.309-.044-.14,0-.125-.044-.125-.044c-.206,0,.074.1-.066,0s.133.191-.044,0,.162.133,0-.044c.118.11,0,.1,0,0v.044a1.8,1.8,0,0,1,0-.2c0,.236,0,.074,0,0h0c.066-.1.059-.1,0,0a1.068,1.068,0,0,1,.125-.133c.177-.147-.118.044.081-.059l.272-.14c-.184.081.125-.044.14-.052a6.545,6.545,0,0,1,.655-.162c.361-.066-.1,0,.11,0h1.06a1.112,1.112,0,0,0,1.1-1.1,1.127,1.127,0,0,0-1.1-1.1Z" transform="translate(-24.316 -15.886)" fill="#3f3f3f"/>
        <path id="Path_2155" data-name="Path 2155" d="M113.26,80.314v1.134a.839.839,0,0,0,.1.42.817.817,0,0,0,.228.361.913.913,0,0,0,.353.228.935.935,0,0,0,.427.1l.295-.044a1.1,1.1,0,0,0,.81-1.06V80.314a.736.736,0,0,0-.1-.42.817.817,0,0,0-.228-.361.862.862,0,0,0-.353-.228.935.935,0,0,0-.427-.1l-.295.044A1.1,1.1,0,0,0,113.26,80.314Z" transform="translate(-29.878 -20.886)" fill="#3f3f3f"/>
        <path id="Path_2156" data-name="Path 2156" d="M118.964,69.929a1.1,1.1,0,1,0-1.1-1.1A1.1,1.1,0,0,0,118.964,69.929Z" transform="translate(-31.091 -17.857)" fill="#3f3f3f"/>
        <path id="Path_2157" data-name="Path 2157" d="M129.515,75.3c-2.364.574-4.926,1.34-6.237,3.564a4.705,4.705,0,0,0-.6,3.439,4.175,4.175,0,0,0,2.106,2.636c3.88,2.113,8.585-.287,10.684-3.77a8.549,8.549,0,0,0,1.009-6.627,1.112,1.112,0,0,0-2.135.589,6.03,6.03,0,0,1-.383,4.212,7.6,7.6,0,0,1-2.967,3.306,5.64,5.64,0,0,1-4.1.736,2.945,2.945,0,0,1-1.789-1.046,1.73,1.73,0,0,1-.221-.434,1.649,1.649,0,0,1-.081-.471,2.489,2.489,0,0,1,.228-1.112c.817-1.878,3.225-2.437,5.1-2.886,1.384-.339.8-2.467-.582-2.135Z" transform="translate(-32.335 -19.465)" fill="#3f3f3f"/>
        <path id="Path_2158" data-name="Path 2158" d="M151.048,65.7a3,3,0,0,1,1.281-2.437,6.3,6.3,0,0,1,3.5-1.053,9.263,9.263,0,0,1,3.328.309,2.82,2.82,0,0,1,.589.243,2.614,2.614,0,0,1,.5.339,1.472,1.472,0,0,1,.383.479,1.834,1.834,0,0,1,.228.685,2.842,2.842,0,0,1-.258,1.281,6.42,6.42,0,0,1-.979,1.546,38.73,38.73,0,0,1-3.078,3.144l-6.767,6.7-7.687,7.54,1.738,1.333a11.958,11.958,0,0,1,2.85-4.359,2.283,2.283,0,0,1,.339-.258,4.248,4.248,0,0,1,.5-.295,1.1,1.1,0,0,1,.361-.147l.272-.074h.214a2.334,2.334,0,0,1,1.1.118,5.949,5.949,0,0,1,1.392.736,56.7,56.7,0,0,0,6.016,3.387c1.1.53,2.209,1.016,3.387,1.473a12.451,12.451,0,0,0,3.564.854,4.926,4.926,0,0,0,3.52-1.06,3.615,3.615,0,0,0,1.377-3.078,1.141,1.141,0,0,0-1.1-1.1,1.1,1.1,0,0,0-1.1,1.1,2.135,2.135,0,0,1,0,.376v.074a.913.913,0,0,1-.155.427,2.076,2.076,0,0,1-.8.736,3.681,3.681,0,0,1-2.621.133,30.284,30.284,0,0,1-6.332-2.614c-1.038-.53-2.054-1.1-3.041-1.708a24.416,24.416,0,0,0-2.827-1.679,5.066,5.066,0,0,0-5.441.832,12.886,12.886,0,0,0-3.343,5.014,1.1,1.1,0,0,0,1.73,1.34l15.117-14.881c1.988-1.959,5.154-4.683,4.123-7.856-.906-2.872-4.234-3.372-6.826-3.291a8.733,8.733,0,0,0-4.985,1.465,5.235,5.235,0,0,0-2.268,4.263c.044,1.421,2.253,1.428,2.209,0Z" transform="translate(-37.404 -15.821)" fill="#3f3f3f"/>
      </g>
    </g>
  </g>
</svg>
