<svg xmlns="http://www.w3.org/2000/svg" width="300" height="185" viewBox="0 0 300 185">
  <g id="HowToUSe_-_UserName" data-name="HowToUSe - UserName" transform="translate(-428 -1058)">
    <rect id="Rectangle_841" data-name="Rectangle 841" width="300" height="185" transform="translate(428 1058)" fill="none"/>
    <g id="HowToUSe_-_UserName-2" data-name="HowToUSe - UserName" transform="translate(466.996 1138.016)">
      <g id="Layer_2" data-name="Layer 2" transform="translate(0.004 -0.016)">
        <path id="Path_2170" data-name="Path 2170" d="M.486,9.034A85.7,85.7,0,0,0,.232,24.361C.391,26.582.351,29.3,2.015,31a6.7,6.7,0,0,0,5.573,1.521,18.95,18.95,0,0,0,10.582-5.2A28.09,28.09,0,0,0,25,16.892,70.043,70.043,0,0,0,28.521,1.5a1.226,1.226,0,0,0-.8-1.465,1.194,1.194,0,0,0-1.5.836,92.1,92.1,0,0,0-1.911,20.622c0,1.967.151,3.925.318,5.884a1.226,1.226,0,0,0,1.194,1.194,1.2,1.2,0,0,0,1.194-1.194,89.517,89.517,0,0,1,.51-20.12q.406-2.874,1-5.717L26.22.873c-1.186,8.121-2.627,16.935-8.289,23.265a18.185,18.185,0,0,1-8.822,5.677,10.215,10.215,0,0,1-2.389.382,7.016,7.016,0,0,1-.709,0H5.63a4.777,4.777,0,0,1-.669-.143,2.708,2.708,0,0,1-.47-.167,2.389,2.389,0,0,1-1.354-1.5,13.6,13.6,0,0,1-.446-3.105,84.749,84.749,0,0,1,.183-16.2A1.194,1.194,0,0,0,1.681,7.879,1.226,1.226,0,0,0,.486,9.074Z" transform="translate(-0.004 0.016)" fill="#3f3f3f"/>
        <path id="Path_2171" data-name="Path 2171" d="M54.423,13.658a3.28,3.28,0,0,0-.151-3.336,4.18,4.18,0,0,0-3.137-1.887,8.472,8.472,0,0,0-3.663.549,10.868,10.868,0,0,0-2.946,1.489A6.21,6.21,0,0,0,42.4,12.949a5.056,5.056,0,0,0-.111,3.678c.8,2.444,2.683,4.363,3.981,6.529A9.244,9.244,0,0,1,47.5,25.991a5.573,5.573,0,0,1,0,2.731A3.1,3.1,0,0,1,46,30.673a4.4,4.4,0,0,1-2.532.438,5.812,5.812,0,0,1-2.7-.852c-.151-.1-.143-.135-.247-.271.119.159-.143-.207,0,0-.048-.072,0-.167,0,0,0,0,.127-.342,0-.159,0,0,.183-.295.1-.191a3.981,3.981,0,0,1,.454-.446,9.714,9.714,0,0,1,3.018-1.33l4.061-1.409q7.962-2.731,16.075-5.263,2.006-.637,4.021-1.242A8.31,8.31,0,0,0,71.8,18.355c1.592-1.592,1.035-4.268-.589-5.573-2.078-1.688-5.04-.947-7.046.478a11.083,11.083,0,0,0-4.045,5.335,8.758,8.758,0,0,0,.191,6.37,8.153,8.153,0,0,0,3.734,3.822,11.68,11.68,0,0,0,10.844-.151c3.981-2.221,6.465-6.37,7.962-10.574.374-1.011.693-2.03.979-3.065H81.573a21.084,21.084,0,0,1-3.185,14.332l2.062,1.2A22.517,22.517,0,0,1,93.214,18.435a21.752,21.752,0,0,1,4.936-1.194,1.234,1.234,0,0,0,1.194-1.194,1.2,1.2,0,0,0-1.194-1.194,24.985,24.985,0,0,0-16.983,9.73,22.357,22.357,0,0,0-2.8,4.777,1.194,1.194,0,1,0,2.062,1.2,23.568,23.568,0,0,0,3.448-16.179,1.194,1.194,0,0,0-2.3,0c-1.075,3.862-2.659,7.8-5.645,10.582a11.561,11.561,0,0,1-2.293,1.664,8.145,8.145,0,0,1-2.158.8A9.554,9.554,0,0,1,66.9,27.36a6.72,6.72,0,0,1-3.686-2.253h0l-.231-.3c-.1-.143-.183-.295-.271-.446a3.893,3.893,0,0,1-.438-1.043,6.107,6.107,0,0,1-.183-2.6,8.384,8.384,0,0,1,2.564-4.777,6.608,6.608,0,0,1,2.476-1.592,3.846,3.846,0,0,1,1.441-.223,3.5,3.5,0,0,1,.629.119s.263.1.1,0a2.476,2.476,0,0,1,.318.175,1.776,1.776,0,0,1,.573.645.932.932,0,0,1,.175.382l.072.287h0v.231a2.1,2.1,0,0,1,0,.231c0-.255-.048.111-.056.135.08-.231-.231.311-.1.167a2.221,2.221,0,0,1-1.043.581c-2.492.8-5.032,1.545-7.54,2.341Q54.048,21.8,46.469,24.446l-3.694,1.29a10.176,10.176,0,0,0-3.185,1.592A3.368,3.368,0,0,0,38.18,29.94,3.105,3.105,0,0,0,40.242,32.6a8.241,8.241,0,0,0,6.163.47,5.773,5.773,0,0,0,3.663-4.889,9.841,9.841,0,0,0-1.592-6.123c-1.17-1.951-2.827-3.671-3.734-5.773a3.9,3.9,0,0,1-.342-1.592,2.436,2.436,0,0,1,.287-1.027,4.777,4.777,0,0,1,1.752-1.6A10.16,10.16,0,0,1,49.128,11a5.263,5.263,0,0,1,1.5-.2,2.556,2.556,0,0,1,1.162.3,1.991,1.991,0,0,1,.191.175s.263.295.151.159a1.282,1.282,0,0,1,.231.4,1.362,1.362,0,0,1,.072.239c-.048-.215,0,.151,0,.175,0,.175,0,.048-.072.223-.74,1.346,1.322,2.556,2.062,1.2Z" transform="translate(-7.784 -1.702)" fill="#3f3f3f"/>
        <path id="Path_2172" data-name="Path 2172" d="M122.663,17.844A53.577,53.577,0,0,0,119,35a1.186,1.186,0,0,0,1.035,1.17,1.218,1.218,0,0,0,1.354-.844c2.5-6.314,5.183-12.93,9.913-17.923a22.9,22.9,0,0,1,4.363-3.623l-1.8-1.035a83.826,83.826,0,0,1,.143,16.84,1.2,1.2,0,0,0,1.194,1.194,1.218,1.218,0,0,0,1.194-1.194,83.824,83.824,0,0,0-.143-16.84,1.21,1.21,0,0,0-1.8-1.027C128.2,15.7,124.4,22.239,121.492,28.863c-.844,1.927-1.632,3.878-2.389,5.828l2.285.311a51.65,51.65,0,0,1,3.543-16.529,1.194,1.194,0,0,0-.8-1.465,1.218,1.218,0,0,0-1.465.8Z" transform="translate(-24.254 -2.345)" fill="#3f3f3f"/>
        <path id="Path_2173" data-name="Path 2173" d="M158.6,13.577a10.725,10.725,0,0,0-9.769,1.935,10.51,10.51,0,0,0-3.71,9.069c.342,3.336,2.524,7.054,6.282,7.07a7.867,7.867,0,0,0,5.04-2.269A26.864,26.864,0,0,0,160.1,25.21a34.7,34.7,0,0,0,5.438-11.075,1.2,1.2,0,0,0-2.213-.924,24.682,24.682,0,0,0-2.811,20.152,1.194,1.194,0,0,0,2.3-.637,22.294,22.294,0,0,1,2.572-18.313l-2.182-.916a32.645,32.645,0,0,1-3.981,8.711,31.326,31.326,0,0,1-2.858,3.774,10.98,10.98,0,0,1-3.519,2.938c-2.651,1.186-4.65-1.067-5.239-3.487A8.05,8.05,0,0,1,157.9,15.878c1.473.454,2.1-1.855.637-2.3Z" transform="translate(-29.567 -2.545)" fill="#3f3f3f"/>
        <path id="Path_2174" data-name="Path 2174" d="M177.149,10.79l-3.288,18.5a1.194,1.194,0,0,0,2.182.916c2.89-5.7,5.828-11.537,10.1-16.362a33.586,33.586,0,0,1,3.981-3.8l-1.991-.525a58.673,58.673,0,0,1-.979,21.912,1.21,1.21,0,0,0,.8,1.465,1.226,1.226,0,0,0,1.473-.8q2.046-5.279,4.459-10.351,1.218-2.58,2.516-5.128a23.385,23.385,0,0,1,2.3-3.9,6.657,6.657,0,0,1,1.592-1.5,2.93,2.93,0,0,1,1.791-.51l-1.194-1.194a122.247,122.247,0,0,1-1.059,21.036,1.226,1.226,0,0,0,.422,1.258,1.21,1.21,0,0,0,1.33.1l21.307-12.739,5.366-3.185L230.9,14.4a4.252,4.252,0,0,0,2.086-1.967c.605-1.592-.645-3.065-1.991-3.726a7.667,7.667,0,0,0-4.9-.358,14.181,14.181,0,0,0-8.368,5.39,19.173,19.173,0,0,0-3.607,9.9,17.537,17.537,0,0,0,1.513,9.634,9.053,9.053,0,0,0,3.32,3.543,14.069,14.069,0,0,0,5.04,1.648c5.629.9,12.532.462,16.681-3.981a11.8,11.8,0,0,0,1.361-1.776c.8-1.306-1.242-2.5-2.062-1.2a10.2,10.2,0,0,1-5.573,4.1,19.77,19.77,0,0,1-7.739.8,20.423,20.423,0,0,1-4.2-.693,7.755,7.755,0,0,1-3.647-2.054c-1.815-1.927-2.341-4.825-2.389-7.413-.1-5.972,2.285-12.445,8.129-14.929a9.841,9.841,0,0,1,3.925-.8,2.914,2.914,0,0,1,1.592.39,1.831,1.831,0,0,1,.573.446s.119.159.056.064.056.1.064.119h0s.072.311,0,.143,0,.056,0,.056v0h0c-.271.191-.6.4-.908.589l-2.548,1.338-4.944,2.962L202.834,28.3l-2.468,1.481,1.752,1.346a125.674,125.674,0,0,0,1.147-21.673,1.218,1.218,0,0,0-1.194-1.194C198.654,8.2,196.5,11.292,195.039,14c-1.9,3.591-3.647,7.261-5.271,10.988-.924,2.134-1.815,4.284-2.651,6.449l2.3.637A61.761,61.761,0,0,0,190.4,8.887a1.17,1.17,0,0,0-.8-.8,1.25,1.25,0,0,0-1.162.311c-5.136,4.172-8.758,9.865-11.84,15.638q-1.362,2.444-2.635,4.968l2.182.916,3.288-18.5a1.234,1.234,0,0,0-.8-1.473,1.2,1.2,0,0,0-1.489.836Z" transform="translate(-35.426 -1.629)" fill="#3f3f3f"/>
      </g>
    </g>
  </g>
</svg>
