<svg xmlns="http://www.w3.org/2000/svg" width="300" height="185" viewBox="0 0 300 185">
  <g id="HowToUSe_-_TextBox" data-name="HowToUSe - TextBox" transform="translate(-810 -713)">
    <rect id="Rectangle_842" data-name="Rectangle 842" width="300" height="185" transform="translate(810 713)" fill="none"/>
    <g id="HowToUSe_-_TextBox-2" data-name="HowToUSe - TextBox" transform="translate(831.033 775.99)">
      <g id="Layer_2" data-name="Layer 2" transform="translate(-0.033 0.01)">
        <path id="Path_2159" data-name="Path 2159" d="M227.574,8.9Q199.454,11.11,171.215,11.4q-28.091.265-56.161-1.4T58.887,4.722C49.712,3.545,40.6,2.053,31.45.759,23.929-.373,15.79-.645,9.725,4.707,4.777,9.081,2.631,15.815,1.418,22.079A69.365,69.365,0,0,0-.009,32.96,11.557,11.557,0,0,0,3.4,41.929c4.411,4.176,11.366,4.845,17.159,4.933,9.256.147,18.5.11,27.76.272q28.5.507,56.977,1.992,28.349,1.47,56.609,3.919c18.857,1.632,37.641,3.764,56.447,5.881,3.323.368,6.911.544,10.05-.823,3.433-1.47,4.992-4.69,5.749-8.183,1.97-9.182,3.5-18.49,5.242-27.716l2.558-13.586a1.125,1.125,0,0,0-1.066-1.4l-20.835.794c-1.412.051-1.419,2.257,0,2.206l20.835-.794L239.83,8.037,234.684,35.43c-.838,4.411-1.632,8.9-2.522,13.344a12.859,12.859,0,0,1-1.882,5.146,7.234,7.234,0,0,1-4.1,2.625c-3.441.9-7.139.243-10.6-.169q-6.962-.823-13.924-1.6-13.689-1.537-27.422-2.83-27.54-2.588-55.139-4.257t-55.33-2.419q-13.777-.4-27.555-.515-6.889-.081-13.777-.088a48.236,48.236,0,0,1-9.557-.735c-2.764-.566-5.646-1.47-7.771-3.448-2.735-2.507-3.073-5.955-2.72-9.491.669-6.55,1.676-13.579,4.852-19.438a17.644,17.644,0,0,1,6.146-6.822,20.047,20.047,0,0,1,11.2-2.485A100.248,100.248,0,0,1,36.949,3.8Q43.683,4.861,50.44,5.795q27.04,3.771,54.293,5.734t54.727,2.1q27.393.147,54.749-1.566,6.683-.419,13.366-.948C228.979,11,228.993,8.794,227.574,8.9Z" transform="translate(0.033 -0.09)" fill="#3f3f3f"/>
      </g>
    </g>
  </g>
</svg>
