<svg xmlns="http://www.w3.org/2000/svg" width="300" height="185" viewBox="0 0 300 185">
  <g id="HowToUSe_-_CheckBox" data-name="HowToUSe - CheckBox" transform="translate(-428 -713)">
    <rect id="Rectangle_841" data-name="Rectangle 841" width="300" height="185" transform="translate(428 713)" fill="none"/>
    <g id="HowToUSe_-_CheckBox-2" data-name="HowToUSe - CheckBox" transform="translate(459.971 759.007)">
      <g id="Layer_2" data-name="Layer 2" transform="translate(0.029 -0.007)">
        <path id="Path_2093" data-name="Path 2093" d="M23.225,21.576q1.26,4.256,2.807,8.428c.529,1.423,1.058,2.846,1.658,4.237a2.905,2.905,0,0,0,1.247,1.515,2.285,2.285,0,0,0,1.893.111,6.5,6.5,0,0,0,2.814-2.886l2.442-3.852,4.929-7.769,5.549-8.8c.653-1.071-1.018-2.05-1.691-.992L35.642,26.146l-2.311,3.643-1.182,1.861a17.405,17.405,0,0,1-.979,1.5,2.879,2.879,0,0,1-1.038.881,1.1,1.1,0,0,1-.157.039s.118,0,0,0h-.091a1.031,1.031,0,0,1-.326-.4,17.874,17.874,0,0,1-.712-1.743c-.248-.653-.5-1.266-.731-1.906q-1.665-4.426-3-8.95a.979.979,0,0,0-1.887.522Z" transform="translate(-8.066 -3.854)" fill="#3f3f3f"/>
        <path id="Path_2094" data-name="Path 2094" d="M40.866.893,28.129,2c-2.128.183-4.263.359-6.391.555a20.505,20.505,0,0,0-5.875,1.162c-1.782.718-3.5,2.056-5.471,2.128a.992.992,0,0,0-.947.718,56.8,56.8,0,0,0-.176,23.567,32.315,32.315,0,0,0,1.417,5.366,4.746,4.746,0,0,0,1.612,2.22,4.988,4.988,0,0,0,2.572.777,53.872,53.872,0,0,0,5.986-.059c2.069-.085,4.132-.215,6.2-.379,4.1-.326,8.186-.8,12.267-1.306,2.083-.268,4.172-.548,6.254-.829a8.7,8.7,0,0,0,4.394-1.436,3.623,3.623,0,0,0,1.306-1.958,14.82,14.82,0,0,0,.215-3.042l.2-6.319.4-12.4.1-3.16c0-.862.091-1.73.033-2.611-.118-1.756-.8-3.4-2.611-4.015A9.179,9.179,0,0,0,46.839.665L43.66.606l-6.2-.131L34.357.41a.98.98,0,0,0,0,1.958l11.908.248a11.751,11.751,0,0,1,2.54.137,1.848,1.848,0,0,1,.751.346,1.769,1.769,0,0,1,.464.653,4.922,4.922,0,0,1,.268,1.958c0,.927-.052,1.848-.078,2.775L49.823,20.3l-.189,5.921-.1,2.912A15.12,15.12,0,0,1,49.4,31.9a1.815,1.815,0,0,1-.144.45s-.2.326-.131.235a2.291,2.291,0,0,1-.353.359,1.678,1.678,0,0,1-.313.209,5.542,5.542,0,0,1-1.723.594c-1.717.353-3.493.509-5.223.738-3.917.516-7.834,1-11.751,1.371s-7.834.653-11.751.692c-.914,0-1.834.039-2.755,0a3.264,3.264,0,0,1-1.893-.5,3.414,3.414,0,0,1-.992-1.737c-.274-.868-.5-1.75-.718-2.611a54.264,54.264,0,0,1-.823-21.916c.157-.9.333-1.8.529-2.7l-.94.718c1.919-.072,3.558-1.025,5.223-1.848a15.472,15.472,0,0,1,5.327-1.371c4.2-.437,8.415-.738,12.626-1.1l7.253-.653a1,1,0,0,0,.979-.979.986.986,0,0,0-.979-.979Z" transform="translate(-2.838 -0.138)" fill="#3f3f3f"/>
        <path id="Path_2095" data-name="Path 2095" d="M115.777,19.525c-2.533.653-5.223,1.443-7.135,3.349a6.159,6.159,0,0,0-1.632,6.959,8.285,8.285,0,0,0,5.223,4.1,15.433,15.433,0,0,0,7.3.359,15.968,15.968,0,0,0,7.54-3.564.992.992,0,0,0,0-1.384,1,1,0,0,0-1.391,0,14.062,14.062,0,0,1-11.705,3,9.636,9.636,0,0,1-2.677-.934,6.13,6.13,0,0,1-2.043-1.658,3.551,3.551,0,0,1-.751-2.481,4.746,4.746,0,0,1,1.077-2.494c1.645-2.037,4.335-2.716,6.75-3.369a.979.979,0,0,0-.522-1.887Z" transform="translate(-36.999 -6.764)" fill="#3f3f3f"/>
        <path id="Path_2096" data-name="Path 2096" d="M140.683,10.011a95.832,95.832,0,0,0-2.69,19.494,1,1,0,0,0,1.958.261,43.348,43.348,0,0,1,2.415-7.991,7.88,7.88,0,0,1,1.723-2.735,3.264,3.264,0,0,1,.588-.45,1.815,1.815,0,0,1,.49-.248,2.65,2.65,0,0,1,1.24-.157c.046,0,.287.039.137,0a2.852,2.852,0,0,1,.339.078,1.306,1.306,0,0,1,.516.222c.039,0,.222.163.111.072a1.552,1.552,0,0,1,.235.228h0l.039.131a1.832,1.832,0,0,1,.144.261,4.955,4.955,0,0,1,.137,1.861l-.052,2.246-.052,2.161a19.436,19.436,0,0,0,0,2.135A2.135,2.135,0,0,0,149,29.361a2.69,2.69,0,0,0,1.808.15,6.744,6.744,0,0,0,1.652-.685q.842-.437,1.645-.94a28.272,28.272,0,0,0,3.121-2.233,26.572,26.572,0,0,0,2.742-2.611,11.248,11.248,0,0,0,2.18-2.964c.509-1.208.32-2.7-1.058-3.186a3.7,3.7,0,0,0-1.958.039c-.653.137-1.306.281-1.958.477a7.586,7.586,0,0,0-3.388,1.926,4.726,4.726,0,0,0-1.43,3.421c.124,2.311,2.083,3.773,4.165,4.341a12.769,12.769,0,0,0,7.455-.561,17.378,17.378,0,0,0,1.991-.875.98.98,0,1,0-.992-1.691,12.652,12.652,0,0,1-6.848,1.475h-.157l-.326-.059c-.229-.046-.457-.1-.685-.163a4.413,4.413,0,0,1-1.149-.464,3.081,3.081,0,0,1-.92-.712s-.183-.209-.1-.1a2.224,2.224,0,0,1-.163-.242,2.428,2.428,0,0,1-.137-.255s-.065-.15,0-.065l-.039-.111a2.056,2.056,0,0,1,0-1.162,3.01,3.01,0,0,1,.516-1.234,5.464,5.464,0,0,1,2.7-1.606c.588-.176,1.195-.313,1.8-.444a6.274,6.274,0,0,1,.653-.118h.326c-.052,0-.1-.072,0,0a.189.189,0,0,1,0,.039c-.052,0,0,0,0,.059v.033c-.039.163,0,0,0,.15l-.091.3a5.066,5.066,0,0,1-.757,1.136,25.369,25.369,0,0,1-4.9,4.668,25.056,25.056,0,0,1-2.99,1.893,5.823,5.823,0,0,1-1.26.581,1.809,1.809,0,0,1-.326.065h-.157c.17,0-.163-.065-.091-.033h0a34.355,34.355,0,0,1,.052-3.662c.033-1.306.137-2.664.072-3.982a3.747,3.747,0,0,0-1.521-3.023,4.217,4.217,0,0,0-2.7-.653c-2.3.176-3.917,1.887-4.864,3.865a37.047,37.047,0,0,0-2.481,7.181q-.245.979-.45,1.958l1.926.261a92.61,92.61,0,0,1,2.611-18.971.983.983,0,0,0-1.893-.522Z" transform="translate(-47.922 -3.243)" fill="#3f3f3f"/>
        <path id="Path_2097" data-name="Path 2097" d="M189.578,22.649a12.469,12.469,0,0,0-4.472,3.538,4.615,4.615,0,0,0-.15,5.34c2.3,3.264,7.227,3.649,10.752,2.559a11.927,11.927,0,0,0,5.51-3.558,1,1,0,0,0,0-1.384.986.986,0,0,0-1.384,0,10.249,10.249,0,0,1-8.67,3.467,7,7,0,0,1-4.074-1.606,2.657,2.657,0,0,1-.529-3.486,9.928,9.928,0,0,1,4-3.2.979.979,0,1,0-.986-1.691Z" transform="translate(-63.96 -7.799)" fill="#3f3f3f"/>
        <path id="Path_2098" data-name="Path 2098" d="M209.634,4.6a85.977,85.977,0,0,0-.744,18.736.992.992,0,0,0,1.469.849l1.658-.947a.979.979,0,0,0-.979-1.665l-1.652.947,1.462.816A83.237,83.237,0,0,1,211.5,5.091a1.025,1.025,0,0,0-.653-1.208,1,1,0,0,0-1.214.718Z" transform="translate(-72.467 -1.333)" fill="#3f3f3f"/>
        <path id="Path_2099" data-name="Path 2099" d="M216.735,17.7a24.278,24.278,0,0,0-4.635,2.148,4.661,4.661,0,0,0-1.821,1.567,2.2,2.2,0,0,0,.444,2.5,10.68,10.68,0,0,0,7.37,3.623,10.112,10.112,0,0,0,4.57-.705,1,1,0,0,0,.653-1.2.986.986,0,0,0-1.208-.685,8.9,8.9,0,0,1-9.14-1.488c-.326-.294-.894-.751-1.012-1.129,0,.033-.059.137,0,0a1.051,1.051,0,0,1,.189-.209,4.786,4.786,0,0,1,.718-.49,21.465,21.465,0,0,1,4.354-2.069.979.979,0,1,0-.522-1.887Z" transform="translate(-72.949 -6.117)" fill="#3f3f3f"/>
        <path id="Path_2100" data-name="Path 2100" d="M238.072,6.845a59.289,59.289,0,0,0,.163,19.063.992.992,0,0,0,1.208.685,1.012,1.012,0,0,0,.685-1.208,56.176,56.176,0,0,1-.17-18.044,1,1,0,0,0-.653-1.2.986.986,0,0,0-1.208.653Z" transform="translate(-82.43 -2.114)" fill="#3f3f3f"/>
        <path id="Path_2101" data-name="Path 2101" d="M248.381,23.683l-.947,6.013a1,1,0,0,0,.685,1.2.986.986,0,0,0,1.208-.653l.94-6.013a1,1,0,0,0-.653-1.2.979.979,0,0,0-1.2.653Z" transform="translate(-85.911 -7.978)" fill="#3f3f3f"/>
        <path id="Path_2102" data-name="Path 2102" d="M253.132,11.42l1.005-1.495a.653.653,0,0,0,.111-.366.725.725,0,0,0,0-.392,1.038,1.038,0,0,0-.45-.588,1.018,1.018,0,0,0-.757-.1l-.235.1a1.051,1.051,0,0,0-.346.353l-1.005,1.5a.731.731,0,0,0-.118.366.8.8,0,0,0,0,.392,1.025,1.025,0,0,0,.45.581.96.96,0,0,0,.757.1l.229-.1a.914.914,0,0,0,.353-.353Z" transform="translate(-87.267 -2.929)" fill="#3f3f3f"/>
        <path id="Path_2103" data-name="Path 2103" d="M265.681,14.895a4.139,4.139,0,0,0-6.887,4.172,5.608,5.608,0,0,0,2,2.611c1.684,1.306,4,1.958,5.112,3.917a1.684,1.684,0,0,1-.111,2.174,3.584,3.584,0,0,1-2.546.738,11.425,11.425,0,0,1-7.273-2.925,1,1,0,0,0-1.384,0,.986.986,0,0,0,0,1.384,13.559,13.559,0,0,0,6.861,3.316c2.167.346,5.184.313,6.339-1.958,1.253-2.474-.764-4.955-2.755-6.267-.888-.581-1.848-1.031-2.722-1.632a6.038,6.038,0,0,1-1.025-.927,2.925,2.925,0,0,1-.607-1.005,2.18,2.18,0,0,1,3.636-2.213.979.979,0,0,0,1.384-1.384Z" transform="translate(-88.306 -4.739)" fill="#3f3f3f"/>
        <path id="Path_2104" data-name="Path 2104" d="M284.1.709c-.914,6.47-1.861,13-1.658,19.526a52.823,52.823,0,0,0,.483,5.654.992.992,0,0,0,1.208.685,1,1,0,0,0,.653-1.208c-.868-6.241-.339-12.6.457-18.821.222-1.763.477-3.525.731-5.288A1.012,1.012,0,0,0,285.318.03a.986.986,0,0,0-1.208.653Z" transform="translate(-98.066 0.007)" fill="#3f3f3f"/>
        <path id="Path_2105" data-name="Path 2105" d="M280.726,17.031,272.239,16a.979.979,0,0,0-.979.979,1,1,0,0,0,.979.979l8.487,1.031a.979.979,0,0,0,.979-.979A1,1,0,0,0,280.726,17.031Z" transform="translate(-94.192 -5.55)" fill="#3f3f3f"/>
        <path id="Path_2106" data-name="Path 2106" d="M312.09,14.759l.594,12.521a1,1,0,0,0,.979.979.986.986,0,0,0,.979-.979l-.568-12.521a1,1,0,0,0-.979-.979.979.979,0,0,0-.979.979Z" transform="translate(-108.367 -4.779)" fill="#3f3f3f"/>
        <path id="Path_2107" data-name="Path 2107" d="M4.24,88.326q.2,13.448,1.051,26.877.235,3.8.535,7.6a.979.979,0,0,0,1.958,0Q6.747,109.386,6.362,95.938c-.072-2.54-.124-5.072-.163-7.612A.98.98,0,0,0,4.24,88.326Z" transform="translate(-1.491 -30.331)" fill="#3f3f3f"/>
        <path id="Path_2108" data-name="Path 2108" d="M13.094,81.376l30.931-7.031,3.806-.868a6.972,6.972,0,0,1,1.619-.32c-.059,0,.124.039.1,0s0-.078,0,.039.059.32.065.483c.091,2.5-.046,5.033-.144,7.527q-.326,7.775-1.306,15.5c-.744,5.686-1.789,11.34-3.094,16.921l.94-.718a129.2,129.2,0,0,0-29.338,1.808q-4.087.751-8.056,1.743l.94,1.619,1.913-2.194a1,1,0,0,0,0-1.384.979.979,0,0,0-1.384,0L8.178,116.7a.986.986,0,0,0,.953,1.632,126.806,126.806,0,0,1,28.646-3.6q4.106-.039,8.2.176a.986.986,0,0,0,.947-.718q1.821-7.775,2.931-15.668c.738-5.3,1.253-10.641,1.515-15.988q.183-3.969.2-7.938c0-1.182,0-2.611-1.26-3.186a2.984,2.984,0,0,0-1.893-.039l-1.958.444L30.5,75.429l-15.942,3.61-1.958.45a.979.979,0,0,0,.522,1.887Z" transform="translate(-2.766 -24.725)" fill="#3f3f3f"/>
        <path id="Path_2109" data-name="Path 2109" d="M6.787,83.5.735,85.869a1,1,0,0,0-.679,1.188.986.986,0,0,0,1.2.653l6.052-2.376a.979.979,0,1,0-.522-1.887Z" transform="translate(-0.029 -28.95)" fill="#3f3f3f"/>
        <path id="Path_2110" data-name="Path 2110" d="M104.8,102.318a15.007,15.007,0,0,0-5.118,4.008,5.986,5.986,0,0,0-.777,5.921,6.691,6.691,0,0,0,1.893,2.291,18.73,18.73,0,0,0,2.716,1.841,11.575,11.575,0,0,0,6.156,1.612,7.867,7.867,0,0,0,5.8-2.788,1.012,1.012,0,0,0,0-1.384.979.979,0,0,0-1.384,0c-2.115,2.716-5.875,2.657-8.833,1.253a16.237,16.237,0,0,1-2.487-1.482,7.429,7.429,0,0,1-1.763-1.619,3.729,3.729,0,0,1,.085-4.23c1.051-1.743,2.977-2.768,4.694-3.734a.979.979,0,0,0-.986-1.691Z" transform="translate(-34.2 -35.477)" fill="#3f3f3f"/>
        <path id="Path_2111" data-name="Path 2111" d="M123.9,89c-.7,6.757-1.1,13.553-1.195,20.349a.988.988,0,1,0,1.958.261,22.2,22.2,0,0,1,9.251-11.888l-1.338-.353c1.058,1.71.359,3.845-.046,5.738s-1.005,4.72.868,6.045c1.116.79,2.35.163,3.408-.4a30.273,30.273,0,0,0,2.925-1.769,31.9,31.9,0,0,0,5.223-4.407,24.283,24.283,0,0,0,2.272-2.7,4.818,4.818,0,0,0,1-3.225,3.107,3.107,0,0,0-1.691-2.611,4.283,4.283,0,0,0-3.7.4,11.509,11.509,0,0,0-4.8,3.989,5.588,5.588,0,0,0-.163,5.875,7.553,7.553,0,0,0,5.66,3.329c2.853.3,5.634-.823,8.213-1.887a1.018,1.018,0,0,0,.685-1.208.992.992,0,0,0-1.208-.685,19.6,19.6,0,0,1-6.261,1.848,6.248,6.248,0,0,1-4.57-1.41,3.564,3.564,0,0,1-1.175-3.917,7.284,7.284,0,0,1,3.127-3.493,7.658,7.658,0,0,1,2.455-1.169,1.175,1.175,0,0,1,.979.137s.137.144.17.189a1.11,1.11,0,0,1,.209.47,2.833,2.833,0,0,1-.653,2.194,18.883,18.883,0,0,1-1.861,2.226,30.271,30.271,0,0,1-4.42,3.917c-.816.581-1.665,1.129-2.533,1.632-.392.228-.8.444-1.2.653-.3.157-.757.457-1.045.366-.111,0,.1.1-.065-.039.17.15-.176-.228-.052-.065a.953.953,0,0,1-.209-.424,2.911,2.911,0,0,1-.111-1.188,18.07,18.07,0,0,1,.516-3.062c.47-2.128.881-4.433-.339-6.4a.986.986,0,0,0-1.338-.353A24.057,24.057,0,0,0,122.7,109.027l1.919.261c.1-6.8.5-13.592,1.195-20.349a.979.979,0,0,0-.979-.979,1,1,0,0,0-.979.979Z" transform="translate(-42.616 -30.532)" fill="#3f3f3f"/>
        <path id="Path_2112" data-name="Path 2112" d="M175.449,102.8a5.053,5.053,0,0,0-3.649,4.733,4.713,4.713,0,0,0,3.675,4.57,4.818,4.818,0,0,0,3.532-.424.98.98,0,1,0-.992-1.691l-.209.1c.144-.065-.039,0-.1.039a3.22,3.22,0,0,1-.6.144h-.764a5.539,5.539,0,0,1-.568-.137l-.255-.091c.157.059-.091-.039-.137-.065-.163-.078-.313-.176-.464-.268l-.111-.078h0a2.438,2.438,0,0,1-.268-.2,2.5,2.5,0,0,1-.183-.189l-.091-.1h0c-.111-.163-.2-.326-.3-.5h0a.155.155,0,0,0-.046-.131l-.078-.261-.059-.268v.039a1.6,1.6,0,0,1,0-.183,5.022,5.022,0,0,1,0-.542h0v-.131a1.358,1.358,0,0,1,.072-.313,2.048,2.048,0,0,1,.085-.261c.033-.085.1-.248,0-.1a3.637,3.637,0,0,1,.281-.522l.1-.157.059-.085.163-.209a4.121,4.121,0,0,1,.464-.431c-.131.1.091-.059.137-.085a3.565,3.565,0,0,1,.313-.176l.117-.059c-.091.046-.052,0,0,0a3.605,3.605,0,0,1,.353-.1.979.979,0,0,0-.522-1.887Z" transform="translate(-59.663 -35.669)" fill="#3f3f3f"/>
        <path id="Path_2113" data-name="Path 2113" d="M187.15,85.229l1.012,17.5a1,1,0,0,0,.979.979.986.986,0,0,0,.979-.979l-1.012-17.5a.979.979,0,1,0-1.958,0Z" transform="translate(-64.992 -29.244)" fill="#3f3f3f"/>
        <path id="Path_2114" data-name="Path 2114" d="M193.1,99.98c-1.959.653-4.57,1.815-5.02,4.119-.529,2.722,2.017,4.5,4.374,5,1.423.307,2.977.339,4.263,1.084a.98.98,0,0,0,.992-1.691,9.936,9.936,0,0,0-3.44-1.051,8.813,8.813,0,0,1-3-.842,3.082,3.082,0,0,1-.973-.8,1.809,1.809,0,0,1-.333-.888,1.622,1.622,0,0,1,0-.307c0,.15,0-.085,0-.131a2.282,2.282,0,0,1,.072-.248c-.013.033,0-.059.033-.059a1.4,1.4,0,0,1,.091-.17,1.247,1.247,0,0,1,.261-.359,4.173,4.173,0,0,1,.5-.464,8.761,8.761,0,0,1,2.67-1.306.987.987,0,0,0-.555-1.893Z" transform="translate(-65.291 -34.692)" fill="#3f3f3f"/>
        <path id="Path_2115" data-name="Path 2115" d="M218.347,77.443a54.374,54.374,0,0,0-1,17.829c.2,1.73.464,3.453.816,5.164a.979.979,0,0,0,1.2.653.992.992,0,0,0,.653-1.2,52.879,52.879,0,0,1-.653-17.176c.2-1.6.49-3.2.842-4.779a.983.983,0,0,0-1.887-.548Z" transform="translate(-75.364 -26.622)" fill="#3f3f3f"/>
        <path id="Path_2116" data-name="Path 2116" d="M227.58,104.389v3.5a.979.979,0,0,0,1.959,0v-3.5a.979.979,0,0,0-1.959,0Z" transform="translate(-79.028 -35.896)" fill="#3f3f3f"/>
        <path id="Path_2117" data-name="Path 2117" d="M232.389,90.808a.979.979,0,1,0-.979-.979A.979.979,0,0,0,232.389,90.808Z" transform="translate(-80.358 -30.841)" fill="#3f3f3f"/>
        <path id="Path_2118" data-name="Path 2118" d="M252.211,90.519a5.634,5.634,0,0,0-7.553-1.743A5.817,5.817,0,0,0,242.17,92.2a5.751,5.751,0,0,0,.509,4.015c1.162,2.285,3.558,3.688,5.608,5.072.5.326,1,.653,1.462,1.018a2.1,2.1,0,0,1,.6.653c.059.118,0,.052,0,.176s0,.065-.052.183a2.239,2.239,0,0,1-1.182.855,5.876,5.876,0,0,1-1.769.313,7.991,7.991,0,0,1-7-3.551.98.98,0,0,0-1.691.992,9.877,9.877,0,0,0,6.7,4.354,9.407,9.407,0,0,0,4.113-.2c1.358-.4,2.853-1.462,2.833-3.029s-1.612-2.5-2.775-3.264c-1.012-.692-2.161-1.417-3.042-2.128a7.338,7.338,0,0,1-2.213-2.566s-.078-.17,0-.046a.621.621,0,0,0-.072-.189,3.759,3.759,0,0,1-.118-.385,2.749,2.749,0,0,1-.124-.79,3.506,3.506,0,0,1,.339-1.658,3.819,3.819,0,0,1,1.247-1.488,3.388,3.388,0,0,1,1.71-.6,3.767,3.767,0,0,1,3.264,1.573,1,1,0,0,0,1.345.353.986.986,0,0,0,.346-1.306Z" transform="translate(-82.827 -30.545)" fill="#3f3f3f"/>
        <path id="Path_2119" data-name="Path 2119" d="M264.247,79.127q-.222,4.988-.359,9.969c-.039,1.678-.078,3.356-.1,5.033a20.767,20.767,0,0,0,.1,4.367c.261,1.306,1.136,2.67,2.611,2.54a1,1,0,0,0,.979-.979.986.986,0,0,0-.979-.979h-.137a.241.241,0,0,1-.117,0h0s-.124-.091-.039,0-.033-.039-.052-.065h0l-.1-.15a1.215,1.215,0,0,1-.2-.483,3.39,3.39,0,0,1-.091-.346.273.273,0,0,0-.033-.157c-.059-.32,0,.091,0-.091a14.859,14.859,0,0,1,0-1.867q0-1.175,0-2.35.078-4.57.235-9.14.1-2.611.215-5.268a.979.979,0,1,0-1.958,0Z" transform="translate(-91.573 -27.137)" fill="#3f3f3f"/>
        <path id="Path_2120" data-name="Path 2120" d="M265.9,92.713a19.147,19.147,0,0,0-10.752-1.541.973.973,0,0,0-.686,1.2,1,1,0,0,0,1.2.653,16.778,16.778,0,0,1,9.244,1.345,1.018,1.018,0,0,0,1.345-.353A.992.992,0,0,0,265.9,92.713Z" transform="translate(-88.348 -31.578)" fill="#3f3f3f"/>
        <path id="Path_2121" data-name="Path 2121" d="M295.6,85.917a6,6,0,0,1,4.531-3.773,5.523,5.523,0,0,1,5.379,2.194,5.876,5.876,0,0,1,.47,6.378,23.565,23.565,0,0,1-5.223,6.319,43.453,43.453,0,0,1-6.528,5.092c-.594.379-1.195.744-1.808,1.09a5.562,5.562,0,0,1-1.821.81,1.1,1.1,0,0,1-.614-.059l-.117-.065c-.137-.072.124.072,0,0a.521.521,0,0,1-.085-.085c.124.124,0,0,0,0-.118-.183,0,.052-.052-.1s-.059-.366-.046-.144a2.215,2.215,0,0,1,0-.294.871.871,0,0,1,0-.131v-.046a1.959,1.959,0,0,1,.477-.927,2.5,2.5,0,0,1,.235-.215c-.131.1.1-.052.137-.078s.189-.1.091-.052.039,0,.052,0a4.03,4.03,0,0,1,.555-.131,7.86,7.86,0,0,1,3.878,1.031,79.214,79.214,0,0,0,8.7,3.192c1.436.431,2.892.823,4.348,1.175a38.94,38.94,0,0,0,4.57.888,8.01,8.01,0,0,0,4.42-.581,5.223,5.223,0,0,0,2.611-2.866,4.022,4.022,0,0,0,.157-2,.979.979,0,0,0-1.2-.653,1,1,0,0,0-.685,1.2,2.161,2.161,0,0,1-.366,1.351,3.4,3.4,0,0,1-1.136,1.064,6.376,6.376,0,0,1-4.159.431,63.748,63.748,0,0,1-9.42-2.389c-1.547-.5-3.081-1.051-4.57-1.645s-2.97-1.345-4.518-1.841a5.081,5.081,0,0,0-4.394.235,3.871,3.871,0,0,0-1.658,3.01,2.611,2.611,0,0,0,2.161,2.664c1.619.255,3.14-.783,4.459-1.58a45.781,45.781,0,0,0,7.214-5.458,44.479,44.479,0,0,0,3.205-3.264,19.807,19.807,0,0,0,2.67-3.63,9,9,0,0,0,1.162-4.27,7.834,7.834,0,0,0-7.586-7.645,8.089,8.089,0,0,0-6.528,3.564,7.468,7.468,0,0,0-.836,1.737.979.979,0,1,0,1.887.522Z" transform="translate(-99.937 -27.811)" fill="#3f3f3f"/>
      </g>
    </g>
  </g>
</svg>
