<svg xmlns="http://www.w3.org/2000/svg" width="300" height="185" viewBox="0 0 300 185">
  <g id="HowToUSe_-_Card" data-name="HowToUSe - Card" transform="translate(-810 -1336)">
    <rect id="Rectangle_842" data-name="Rectangle 842" width="300" height="185" transform="translate(810 1336)" fill="none"/>
    <g id="HowToUSe_-_Card-2" data-name="HowToUSe - Card" transform="translate(841.996 1376.999)">
      <g id="Layer_2" data-name="Layer 2" transform="translate(0.002 0.002)">
        <path id="Path_2200" data-name="Path 2200" d="M6.349,5.536,7.168,66.6l.192,15.43.1,7.387c.026,1.785-.41,4.428.787,5.944,1.152,1.459,3.481,1.136,5.119,1.193l7.832.269q7.611.256,15.225.48,30.454.905,60.921,1.385,30.579.477,61.154.518,15.357.022,30.687-.067c5.077-.029,10.154-.054,15.235-.115a11.277,11.277,0,0,0,5.679-1.088,8.337,8.337,0,0,0,3.247-4.364c7-17.212,6.8-36.574,6.21-54.823-.32-9.943-.717-19.884-1.078-29.827l-.134-3.673a14.09,14.09,0,0,0-.227-3.346c-.563-1.936-2.8-1.68-4.4-1.7q-7.678-.09-15.4-.141Q167.916-.13,137.5.289,106.986.711,76.484,1.754T15.515,4.461Q8.157,4.864.773,5.3c-1.024.061-1.03,1.66,0,1.6q29.7-1.766,59.433-2.947T119.69,2.186Q149.44,1.6,179.2,1.6q14.765,0,29.536.147l3.7.038a15.786,15.786,0,0,1,3.391.058c1.235.294.9,2.169.934,3.2L216.9,8.93l.525,14.681c.669,18.4,2.128,37.233-1.513,55.418a84.143,84.143,0,0,1-3.634,12.922c-.761,2.038-1.638,4.255-3.878,5.016-2.057.7-4.441.461-6.581.48q-14.793.131-29.6.154-29.814.058-59.631-.3T52.969,96.162q-14.9-.384-29.8-.877-3.7-.118-7.394-.25l-3.7-.128c-1.011-.038-2.419.144-2.806-1.04a10.789,10.789,0,0,1-.176-3.148l-.054-3.913-.1-7.387L8.144,20.1l-.2-14.56A.8.8,0,0,0,6.349,5.536Z" transform="translate(-0.002 -0.002)"/>
        <path id="Path_2201" data-name="Path 2201" d="M96.32,46.885A130.116,130.116,0,0,0,74.149,49.9q-3.081.694-6.127,1.532a.816.816,0,0,0-.48,1.177A28.685,28.685,0,0,1,70.2,63.246a28.3,28.3,0,0,1-.234,5.532,7.311,7.311,0,0,0-.1,2.751,3.126,3.126,0,0,0,1.43,1.92c1.35.832,3.071.749,4.6.749h21.72a8,8,0,0,0,2.259-.259,3.292,3.292,0,0,0,1.955-1.468,5.525,5.525,0,0,0,.525-2.63q.157-6.223-.032-12.458-.09-3.1-.269-6.184a9.878,9.878,0,0,0-1-4.188,3.263,3.263,0,0,0-3.106-1.942,4.1,4.1,0,0,0-2.383,1.28c-.672.64-1.36,1.388-2.038,2.083L76,66.426,73.887,68.6c-.72.736.41,1.868,1.133,1.129L91.636,52.679l4.185-4.293a6.58,6.58,0,0,1,1.83-1.6,1.212,1.212,0,0,1,1.264.122,3.01,3.01,0,0,1,.861,1.152,7.013,7.013,0,0,1,.525,1.708,17.6,17.6,0,0,1,.192,2.239c.051.979.1,1.958.138,2.934q.24,5.909.173,11.837c0,.979-.029,1.958-.051,2.937a3.766,3.766,0,0,1-.394,2.121,2.279,2.279,0,0,1-1.6.736,18.461,18.461,0,0,1-2.454.058H75.569a13.825,13.825,0,0,1-2.121-.086,3.1,3.1,0,0,1-1.6-.617,2.168,2.168,0,0,1-.461-1.952c.093-.864.246-1.721.32-2.588s.115-1.75.112-2.63a30.336,30.336,0,0,0-1.868-10.449c-.32-.841-.662-1.67-1.043-2.486L68.432,53a127.6,127.6,0,0,1,21.65-4.041q3.1-.32,6.223-.458c1.027-.051,1.033-1.651,0-1.6Z" transform="translate(-45.865 -30.639)"/>
        <path id="Path_2202" data-name="Path 2202" d="M68.42,69.691a7.043,7.043,0,0,1,5.672,0,23.9,23.9,0,0,1,5.64,3.241c4.041,2.915,8.1,5.787,12.272,8.51q3.519,2.3,7.134,4.479a.8.8,0,0,0,.809-1.379q-6.619-4.015-12.973-8.421c-2.108-1.456-4.185-2.956-6.258-4.46a26.346,26.346,0,0,0-5.938-3.426,8.788,8.788,0,0,0-7.17.067c-.918.464-.109,1.846.809,1.379Z" transform="translate(-45.706 -45.908)"/>
        <path id="Path_2203" data-name="Path 2203" d="M211.258,54.174q22.635.038,45.267-.368,22.517-.4,45.02-1.248,12.692-.473,25.383-1.091c1.024-.048,1.03-1.651,0-1.6q-22.609,1.094-45.235,1.75-22.513.64-45.03.861-12.7.122-25.405.1A.8.8,0,0,0,211.258,54.174Z" transform="translate(-143.146 -33.913)"/>
        <path id="Path_2204" data-name="Path 2204" d="M223.575,85.454q20.527,1.062,41.085.915t41.069-1.52q11.556-.768,23.076-1.92a.819.819,0,0,0,.8-.8.8.8,0,0,0-.8-.8q-20.45,2.051-40.992,2.879t-41.095.458q-11.575-.211-23.144-.813C222.548,83.8,222.551,85.4,223.575,85.454Z" transform="translate(-151.525 -55.311)"/>
        <path id="Path_2205" data-name="Path 2205" d="M223.515,122.6H332.643a.8.8,0,0,0,0-1.6H223.515A.8.8,0,0,0,223.515,122.6Z" transform="translate(-151.481 -82.289)"/>
        <path id="Path_2206" data-name="Path 2206" d="M222.308,154.664q13.974-.838,27.981-1.085t28,.118c.717.019,1.7-.064,2.176.6a4.068,4.068,0,0,1,.458,2.3q.106,3.436.067,6.875a29.232,29.232,0,0,1-.093,3.263,2.07,2.07,0,0,1-1.244,1.814,12.238,12.238,0,0,1-2.758.675q-1.664.32-3.343.6a157.77,157.77,0,0,1-27.018,1.811c-9.028-.086-18.092-.694-27.117-1.366l-3.4-.256.771,1.011,1.9-9.729.96-4.828a8.791,8.791,0,0,1,1.213-3.737c.611-.8,1.92-1.305,2.675-.509s1.833-.378,1.133-1.133a3.174,3.174,0,0,0-3.785-.425,5.259,5.259,0,0,0-2.4,3.57c-.422,1.641-.681,3.337-1.008,5l-1.062,5.292-1.187,6.079a.816.816,0,0,0,.771,1.014c9.332.7,18.674,1.4,28.035,1.6a169.166,169.166,0,0,0,27.786-1.5c2.281-.32,4.559-.717,6.811-1.193a5.755,5.755,0,0,0,2.665-1.129,3.956,3.956,0,0,0,1.181-2.636c.115-1.129.083-2.287.093-3.42s0-2.319,0-3.478-.029-2.4-.077-3.593a5.709,5.709,0,0,0-.579-2.614,3.12,3.12,0,0,0-2.559-1.475c-1.049-.109-2.214-.08-3.311-.106q-3.58-.077-7.16-.118-7.237-.08-14.48,0-14.32.154-28.624.941-1.747.1-3.494.2c-1.024.061-1.03,1.66,0,1.6Z" transform="translate(-146.361 -102.168)"/>
        <path id="Path_2207" data-name="Path 2207" d="M255.869,179.124a18.229,18.229,0,0,0,1.92,6.219,2.191,2.191,0,0,0,1.152,1.152,1.49,1.49,0,0,0,1.568-.685,15.526,15.526,0,0,0,.934-1.507q.457-.777.9-1.558,1-1.769,1.92-3.586a.819.819,0,0,0-.288-1.094.809.809,0,0,0-1.094.288q-.9,1.785-1.881,3.519c-.32.582-.662,1.158-1,1.731-.17.288-.342.573-.515.857-.022.038-.362.534-.368.515a.32.32,0,0,1,.368.029c0,.042-.019.019-.058-.07a1.721,1.721,0,0,0-.192-.3,8.7,8.7,0,0,1-.448-.835,11.076,11.076,0,0,1-.592-1.584,30.747,30.747,0,0,1-.768-3.519.809.809,0,0,0-.985-.56.819.819,0,0,0-.56.982Z" transform="translate(-174 -121.026)"/>
        <path id="Path_2208" data-name="Path 2208" d="M292.256,179H288.99a.8.8,0,1,0,0,1.6h3.266a.8.8,0,0,0,0-1.6Z" transform="translate(-195.991 -121.733)"/>
        <path id="Path_2209" data-name="Path 2209" d="M290.656,183.387l.425,6.693a.819.819,0,0,0,.8.8.8.8,0,0,0,.8-.8l-.432-6.69a.819.819,0,0,0-.8-.8.8.8,0,0,0-.8.8Z" transform="translate(-197.664 -124.175)"/>
        <path id="Path_2210" data-name="Path 2210" d="M285.779,204.472a9.313,9.313,0,0,0-5.164-.374.8.8,0,0,0-.557.985.819.819,0,0,0,.982.557,5.814,5.814,0,0,1,1.065-.141,8.662,8.662,0,0,1,1.113.029l.259.026h.042a.821.821,0,0,1,.128.019c.186.029.368.061.55.1a9.169,9.169,0,0,1,1.152.349.8.8,0,0,0,.982-.56A.819.819,0,0,0,285.779,204.472Z" transform="translate(-190.441 -138.664)"/>
        <path id="Path_2211" data-name="Path 2211" d="M315.47,177.961h-4.1c-.662,0-1.334-.042-1.993,0a1.318,1.318,0,0,0-1.28,1.165,14.621,14.621,0,0,0-.109,3.919,17.062,17.062,0,0,0,.32,2.048,7.2,7.2,0,0,0,.553,1.763,1.859,1.859,0,0,0,1.724.857c.755.038,1.513.042,2.268.016,1.027-.038,1.03-1.638,0-1.6q-1.056.038-2.118,0c-.138,0-.275-.022-.416-.022s-.106-.083-.054,0a2.839,2.839,0,0,1-.253-.777,14.357,14.357,0,0,1-.512-3.9,10.719,10.719,0,0,1,.138-1.92,1.458,1.458,0,0,1,.038-.17c-.352.179-.416.259-.2.234a1.542,1.542,0,0,0,.47,0h5.516a.8.8,0,0,0,0-1.6Z" transform="translate(-209.402 -121.014)"/>
        <path id="Path_2212" data-name="Path 2212" d="M309.11,187.976a52.661,52.661,0,0,1,6.965-.877.816.816,0,0,0,.8-.8.806.806,0,0,0-.8-.8,56.233,56.233,0,0,0-7.378.934.8.8,0,1,0,.422,1.542Z" transform="translate(-209.52 -126.154)"/>
        <path id="Path_2213" data-name="Path 2213" d="M338.627,178.949a42.785,42.785,0,0,0,1.561,6.079.809.809,0,0,0,1.462.189,33.4,33.4,0,0,0,3.308-6.466l-1.462.189a19.6,19.6,0,0,1,1.484,3.666,3.937,3.937,0,0,0,.825,1.712,1.472,1.472,0,0,0,1.862.093,3.619,3.619,0,0,0,1.11-1.507c.32-.621.6-1.254.873-1.894a39.061,39.061,0,0,0,1.475-4.041.8.8,0,0,0-1.542-.425c-.346,1.142-.739,2.268-1.193,3.369-.208.512-.435,1.014-.669,1.513a8.289,8.289,0,0,1-.765,1.478,1.435,1.435,0,0,1-.221.211c0-.019.144.054.125,0s-.048-.093-.067-.141c-.214-.521-.368-1.075-.547-1.6a17.345,17.345,0,0,0-1.369-3.225.81.81,0,0,0-1.462.192,31.426,31.426,0,0,1-3.148,6.079l1.462.192a42.785,42.785,0,0,1-1.561-6.079.8.8,0,0,0-.982-.557.816.816,0,0,0-.56.982Z" transform="translate(-230.274 -119.683)"/>
      </g>
    </g>
  </g>
</svg>
