<svg xmlns="http://www.w3.org/2000/svg" width="300" height="185" viewBox="0 0 300 185">
  <g id="HowToUSe_-_Paragraph" data-name="HowToUSe - Paragraph" transform="translate(-1192 -398)">
    <rect id="Rectangle_843" data-name="Rectangle 843" width="300" height="185" transform="translate(1192 398)" fill="none"/>
    <g id="HowToUSe_-_Paragraph-2" data-name="HowToUSe - Paragraph" transform="translate(1225.462 432.002)">
      <g id="Layer_2" data-name="Layer 2" transform="translate(0.004 -0.002)">
        <path id="Path_2125" data-name="Path 2125" d="M1.2,20.549l92.145,8.968c30.462,2.959,60.916,6.251,91.428,8.568,17.16,1.308,34.338,1.992,51.531,2.7,1.609.067,1.6-2.434,0-2.5-15.319-.633-30.645-1.208-45.939-2.292s-30.412-2.5-45.6-3.975L53.091,23.1,1.2,18.049C-.4,17.9-.391,20.4,1.2,20.549Z" transform="translate(-0.004 -3.004)" fill="#3f3f3f"/>
        <path id="Path_2126" data-name="Path 2126" d="M9.6,40.609c14.427,1.567,28.862,3.142,43.339,4.617s28.745,2.842,43.13,4.042,28.937,2.209,43.422,2.942q10.835.55,21.669.833c7.051.217,14.11.333,21.161-.067a176.612,176.612,0,0,0,20.486-2.784c6.426-1.133,13.152-2.159,19.636-.883a28.429,28.429,0,0,1,4.667,1.342c1.5.575,2.15-1.842.658-2.409-12.743-4.859-26.453.35-39.347,1.734-14.252,1.525-28.762.625-43.047,0-14.493-.658-28.97-1.609-43.43-2.759s-28.92-2.5-43.339-3.942-29.12-3.009-43.622-4.584L9.6,38.108C8.01,37.933,8.018,40.434,9.6,40.609Z" transform="translate(-1.404 -6.345)" fill="#3f3f3f"/>
        <path id="Path_2127" data-name="Path 2127" d="M26.47,63.01,98.62,66.827,170.4,70.619,210.9,72.761c1.609.083,1.609-2.417,0-2.5l-72.142-3.817L66.966,62.652,26.47,60.51C24.861,60.426,24.869,62.927,26.47,63.01Z" transform="translate(-4.212 -10.077)" fill="#3f3f3f"/>
        <path id="Path_2128" data-name="Path 2128" d="M21.866,88.03l41.589,1.05,41.589,1.058,41.755,1.05,41.589,1.05c6.943.175,13.885.4,20.836.517,3.334.058,6.726.05,10.085-.192,1.317-.092,2.9-.05,4.025-.833a2.259,2.259,0,0,0,.683-3.067,1.95,1.95,0,0,0-2.775-.733c-1.267.958,0,3.125,1.267,2.159l-.575-.075a.609.609,0,0,1-.075-.292,4.685,4.685,0,0,0-.75.217c-.717.117-1.467.133-2.192.183q-2.567.158-5.142.183c-3.234,0-6.476-.058-9.71-.142l-19.894-.508L144.8,88.664,66.071,86.647,21.9,85.53a1.251,1.251,0,0,0,0,2.5Z" transform="translate(-3.45 -14.245)" fill="#3f3f3f"/>
        <path id="Path_2129" data-name="Path 2129" d="M24.09,111.057c27.587-1.175,55.207-.533,82.769.833s55.165,3.425,82.76,5.067c7.543.45,15.094.975,22.653,1.133a89.753,89.753,0,0,0,22.4-1.9c1.567-.367.9-2.775-.667-2.409-13.135,3.05-26.887,1.667-40.205.908q-20.49-1.175-40.955-2.584c-27.42-1.784-54.865-3.492-82.344-4.009-15.469-.292-30.946-.2-46.406.458-1.609.067-1.617,2.567,0,2.5Z" transform="translate(-3.816 -17.978)" fill="#3f3f3f"/>
        <path id="Path_2130" data-name="Path 2130" d="M21.825,134.22q37.221.225,74.434,1.125,37.021.9,74.018,2.45,20.836.883,41.73,1.975c1.609.083,1.6-2.417,0-2.5q-37.18-1.984-74.4-3.217-37-1.267-74.034-1.867-20.878-.342-41.772-.467a1.25,1.25,0,0,0,0,2.5Z" transform="translate(-3.426 -21.938)" fill="#3f3f3f"/>
        <path id="Path_2131" data-name="Path 2131" d="M152.06,147.78q13.552,1.15,27.153,1.425t27.187-.342q7.643-.35,15.269-.975a1.25,1.25,0,1,0,0-2.5q-13.552,1.117-27.153,1.342t-27.187-.433q-7.634-.367-15.269-1.017a1.258,1.258,0,0,0-1.25,1.25A1.275,1.275,0,0,0,152.06,147.78Z" transform="translate(-25.122 -24.197)" fill="#3f3f3f"/>
        <path id="Path_2132" data-name="Path 2132" d="M15.606,2.5c13.41,4.092,27.428,5.584,41.388,6.067,14.235.483,28.479,0,42.714.25,7.059.133,14.127.467,21.153,1.208a205.993,205.993,0,0,1,21.611,3.659c7.334,1.575,14.66,3.217,22.078,4.392s14.785,1.992,22.2,2.8q22.653,2.5,45.306,4.926l5.726.625c1.592.175,1.584-2.334,0-2.5L192.478,19c-7.5-.833-15-1.592-22.5-2.634-7.309-1.025-14.543-2.434-21.761-4s-14.4-3.159-21.669-4.167c-6.968-.958-13.985-1.484-21.019-1.742-14.168-.517-28.337,0-42.505-.258C48.993,5.95,34.958,5,21.4,1.5Q18.823.833,16.273.058c-1.542-.467-2.2,1.942-.667,2.417Z" transform="translate(-2.457 0.002)" fill="#3f3f3f"/>
      </g>
    </g>
  </g>
</svg>
