<svg xmlns="http://www.w3.org/2000/svg" width="300" height="185" viewBox="0 0 300 185">
  <g id="HowToUSe_-_Image" data-name="HowToUSe - Image" transform="translate(-810 -398)">
    <rect id="Rectangle_842" data-name="Rectangle 842" width="300" height="185" transform="translate(810 398)" fill="none"/>
    <g id="HowToUSe_-_Image-2" data-name="HowToUSe - Image" transform="translate(898.996 448.979)">
      <g id="Layer_2" data-name="Layer 2" transform="translate(0.004 0.021)">
        <path id="Path_2122" data-name="Path 2122" d="M3.008,6.656C4.485,12.292,5.988,18.022,5.9,23.894a50.86,50.86,0,0,1-1.09,8.683c-.545,2.871-1.1,5.82-1.567,8.743A251.923,251.923,0,0,0,.051,76.777Q-.144,86.8.469,96.784a.958.958,0,0,0,1.187.917,72.382,72.382,0,0,1,14.875-.59q7.514.24,15.059.5l30.37,1.007,30.37,1.007c3.877.128,9.062.793,11.151-3.381,1.74-3.472.62-7.672.725-11.373.139-4.96,1.281-9.833,1.608-14.781s.162-9.953.041-14.924L105.1,24.8,104.727,9.62,104.634,5.8a28.39,28.39,0,0,0-.132-3.577c-.188-1.206-1.1-1.661-2.209-1.811C101.083.246,99.866.13,98.645.073,89.007-.385,79.569,2.328,69.954,2.38A136.866,136.866,0,0,1,55.3,1.2a82.929,82.929,0,0,0-14.837-.184C35.5,1.388,30.571,2.08,25.631,2.621a141.268,141.268,0,0,1-14.909.864q-3.7,0-7.394-.2a.954.954,0,0,0-.905,1.191l.7,3.536c.233,1.184,2.044.684,1.811-.5l-.7-3.536L3.328,5.168a131.165,131.165,0,0,0,14.886-.038c4.914-.289,9.8-.917,14.683-1.5A123.13,123.13,0,0,1,47.441,2.591c4.866.015,9.731.7,14.593,1.195,2.438.248,4.884.44,7.342.451a67.924,67.924,0,0,0,7.049-.376c4.7-.466,9.359-1.217,14.063-1.668a62.262,62.262,0,0,1,7-.3c1.2.026,2.4.1,3.592.229.274.03.549.06.819.1a1.755,1.755,0,0,1,.631.109c.24.154.162.594.169.872l.376,14.972.729,29.847c.124,4.967.3,9.938.323,14.909,0,2.45-.034,4.9-.2,7.345s-.5,4.809-.838,7.206a65.571,65.571,0,0,0-.751,7.27c-.064,2.029.169,4.039.21,6.06a9.066,9.066,0,0,1-.875,4.817c-.947,1.589-2.716,2.1-4.467,2.19-2.3.116-4.633-.086-6.932-.165l-7.439-.244-14.98-.5L38,95.92l-14.988-.473c-4.922-.162-9.863-.451-14.785-.274a51.888,51.888,0,0,0-7.071.718l1.187.905a251.226,251.226,0,0,1,.376-35.754Q3.448,52.2,4.8,43.428q.688-4.445,1.533-8.86A75.322,75.322,0,0,0,7.7,25.7c.47-6.635-1.217-13.169-2.882-19.538A.939.939,0,0,0,3.008,6.656Z" transform="translate(-0.004 -0.021)" fill="#3f3f3f"/>
        <path id="Path_2123" data-name="Path 2123" d="M5.852,14.716c7.394,4.073,13.594,9.859,19.3,15.994,5.835,6.252,11.272,12.876,17.283,18.959A270.886,270.886,0,0,0,62.57,67.825C69.529,73.581,76.683,79.2,83.7,84.92s13.9,11.535,20.383,17.794q1.221,1.172,2.42,2.363a.938.938,0,0,0,1.326-1.326C101.4,97.345,94.526,91.4,87.518,85.626S73.35,74.223,66.313,68.475s-13.868-11.61-20.33-17.922C39.775,44.459,34.2,37.827,28.361,31.391,22.7,25.184,16.669,19.176,9.507,14.686q-1.33-.834-2.705-1.593C5.743,12.511,4.792,14.13,5.852,14.716Z" transform="translate(-3.366 -8.104)" fill="#3f3f3f"/>
        <path id="Path_2124" data-name="Path 2124" d="M101.574,5.807c-7.3,5.084-12.632,12.249-18.6,18.718A93.113,93.113,0,0,1,72.971,33.84c-3.536,2.859-7.229,5.523-10.9,8.191-3.757,2.709-7.484,5.433-11.069,8.349a116.138,116.138,0,0,0-10.1,9.318c-6.387,6.6-12.136,13.77-18.035,20.781-2.964,3.509-5.97,6.981-9.123,10.321-2.938,3.115-6.012,6.387-9.953,8.232a13.9,13.9,0,0,1-2.916.954c-1.18.255-.68,2.066.5,1.811,4.332-.939,7.89-3.821,10.952-6.868,3.239-3.2,6.267-6.624,9.239-10.077C27.583,77.87,33.3,70.634,39.546,63.86a128.588,128.588,0,0,1,9.769-9.63c3.449-3.006,7.1-5.779,10.8-8.484C67.556,40.3,75.225,35.053,81.759,28.5,87.984,22.256,93.12,14.93,99.981,9.32c.812-.665,1.649-1.3,2.514-1.9a.966.966,0,0,0,.338-1.285.951.951,0,0,0-1.259-.327Z" transform="translate(-0.131 -3.561)" fill="#3f3f3f"/>
      </g>
    </g>
  </g>
</svg>
