<svg xmlns="http://www.w3.org/2000/svg" width="300" height="185" viewBox="0 0 300 185">
  <g id="HowToUSe_-_Profile" data-name="HowToUSe - Profile" transform="translate(-428 -398)">
    <g id="Rectangle_841" data-name="Rectangle 841" transform="translate(428 398)" fill="none" stroke="rgba(0,0,0,0)" stroke-width="1">
      <rect width="300" height="185" stroke="none"/>
      <rect x="0.5" y="0.5" width="299" height="184" fill="none"/>
    </g>
    <g id="HowToUSe_-_Profile-2" data-name="HowToUSe - Profile" transform="translate(505 439.01)">
      <g id="Layer_2" data-name="Layer 2" transform="translate(0 -0.01)">
        <path id="Path_2189" data-name="Path 2189" d="M14.646,4.74,14.007,50.3,13.68,72.8l-.163,11.391-.079,5.691c0,1.694-.332,3.744,1.228,4.878,1.278.936,3.041.728,4.527.679q2.793-.089,5.587-.253c3.645-.208,7.285-.5,10.931-.718A154.3,154.3,0,0,1,58,94.18c13.754,1.08,26.824,5.914,40.359,8.266a67.362,67.362,0,0,0,20.212.852c3.14-.411,6.934-.763,8.915-3.531a17.092,17.092,0,0,0,1.981-4.487q.817-2.427,1.486-4.9c3.739-13.555,4.457-27.735,4.482-41.726,0-7.171-.134-14.363-.233-21.519L135.041,15.8c-.05-3.71,0-7.429-.163-11.139-.069-1.56-.466-3.209-1.9-4.071s-3.145-.594-4.7-.411c-3.516.4-7,.991-10.47,1.7-6.934,1.4-13.744,3.19-20.692,4.428A79.886,79.886,0,0,1,76.852,7.424,176.393,176.393,0,0,1,57.734,4.551C45.293,2.219,32.332-.5,19.717,2.149a43.054,43.054,0,0,0-8.737,2.863,1.248,1.248,0,0,0-.441,1.694,1.268,1.268,0,0,0,1.694.446c11.352-5.086,24.085-3.873,36-1.823,12.565,2.159,25.184,5.393,38.027,4.75,13.833-.674,26.982-5.493,40.647-7.261.842-.1,1.684-.208,2.526-.287a4.576,4.576,0,0,1,2.1.089c1.06.446.877,2.154.891,3.076l.154,11.089q.149,10.985.3,21.98c.178,13.625.238,27.378-2.08,40.85-.579,3.363-1.308,6.7-2.209,9.995-.441,1.61-.926,3.214-1.456,4.8a12.675,12.675,0,0,1-1.842,4.17,6.063,6.063,0,0,1-3.6,1.7,42.358,42.358,0,0,1-4.67.718,57.669,57.669,0,0,1-9.831.094c-13.372-.956-26.14-5.631-39.27-8.048a103.634,103.634,0,0,0-21.074-1.6c-7.3.163-14.566.837-21.846,1.253-1.778.1-3.561.193-5.344.253-.817.03-1.644.079-2.476.054-.367,0-.991,0-1.228-.352a1.724,1.724,0,0,1-.1-.837V90.624l.045-2.972.074-5.567.362-22.163L16.964,15.5,17.122,4.74A1.239,1.239,0,0,0,14.646,4.74Z" transform="translate(-5.236 0.01)"/>
        <path id="Path_2190" data-name="Path 2190" d="M7.477,9.475a62.15,62.15,0,0,1,25.08,6.973,93.609,93.609,0,0,1,21.762,15.67,195.206,195.206,0,0,1,18.9,21.232c6.221,7.885,12.263,15.913,18.37,23.887l9.6,12.535c2.749,3.591,5.369,7.493,8.994,10.282a16.952,16.952,0,0,0,2.694,1.709c1.421.713,2.674-1.421,1.248-2.14-3.9-1.981-6.552-5.557-9.148-8.945l-9.6-12.535C89.132,69.992,82.941,61.8,76.626,53.712A220.591,220.591,0,0,0,57.915,32.143a100.8,100.8,0,0,0-21.9-16.671A67.489,67.489,0,0,0,10.78,7.251c-1.095-.119-2.2-.2-3.3-.253-1.59-.074-1.585,2.4,0,2.476Z" transform="translate(-3.173 -3.526)"/>
        <path id="Path_2191" data-name="Path 2191" d="M126.533,15.011,101.77,32.44,77.006,49.863c-7.885,5.552-15.819,11.054-23.431,16.983-3.719,2.9-7.35,5.9-10.851,9.058-3.006,2.7-5.943,5.488-8.984,8.157-5.884,5.151-12.307,10.1-19.885,12.461-.931.287-1.872.53-2.823.738-1.56.342-.9,2.729.659,2.387,7.954-1.743,14.823-6.3,21-11.441,3.135-2.59,6.107-5.349,9.078-8.088,3.308-3.031,6.671-6,10.163-8.826,7.464-6.047,15.353-11.56,23.193-17.087L99.888,36.783l24.867-17.5,3.031-2.135a1.273,1.273,0,0,0,.446-1.694,1.248,1.248,0,0,0-1.694-.446Z" transform="translate(-5.118 -7.488)"/>
        <path id="Path_2192" data-name="Path 2192" d="M1.238,231.419c15.626-1.912,31.316-3.823,47.085-3.749a164.056,164.056,0,0,1,23.06,1.743c7.553,1.109,15.046,2.556,22.609,3.581,8.454,1.144,17.017,1.773,25.516.758a1.273,1.273,0,0,0,1.238-1.238,1.248,1.248,0,0,0-1.238-1.238c-15.244,1.818-30.355-1.615-45.342-3.927a172.889,172.889,0,0,0-23.154-2.12,231.674,231.674,0,0,0-23.456.867c-8.8.723-17.557,1.788-26.319,2.863A1.273,1.273,0,0,0,0,230.2a1.248,1.248,0,0,0,1.238,1.238Z" transform="translate(0 -113.663)"/>
      </g>
    </g>
  </g>
</svg>
