<svg xmlns="http://www.w3.org/2000/svg" width="300" height="185" viewBox="0 0 300 185">
  <g id="HowToUSe_-_DropDown" data-name="HowToUSe - DropDown" transform="translate(-1192 -713)">
    <rect id="Rectangle_843" data-name="Rectangle 843" width="300" height="185" transform="translate(1192 713)" fill="none"/>
    <g id="HowToUSe_-_DropDown-2" data-name="HowToUSe - DropDown" transform="translate(1232.32 785.664)">
      <g id="Layer_2" data-name="Layer 2" transform="translate(-0.025 0.008)">
        <path id="Path_2133" data-name="Path 2133" d="M4.751,10.313l-3.977,22,2.64.352c.37-5.9.95-12.046,3.3-17.537a19.041,19.041,0,0,1,4.725-6.863,18.038,18.038,0,0,1,9.213-3.986,105.7,105.7,0,0,1,12.028-.968q6.415-.343,12.82-.493c8.561-.176,17.114-.176,25.667-.079,17.132.282,34.237,1.117,51.351,1.9s34.316,1.707,51.536,2.3c8.517.29,17.035.422,25.517.158q3.194-.1,6.379-.273c1.962-.106,3.933-.352,5.9-.326a4.586,4.586,0,0,1,4.056,1.76,6.74,6.74,0,0,1,.88,3.924c-.079,3.643-1.276,7.321-2.059,10.849l-2.772,12.565c-.466,2.094-.924,4.188-1.39,6.283-.334,1.5-.625,3.37-2.006,4.285s-3.168.722-4.672.563c-2.041-.211-4.065-.51-6.1-.766-16.9-2.156-33.815-4.4-50.788-5.9a446.757,446.757,0,0,0-50.779-1.936c-16.63.387-33.252,1.584-49.891,1.566a239.215,239.215,0,0,1-24.734-1.205q-6.177-.66-12.319-1.76c-1.012-.194-2.024-.387-3.036-.607a15.117,15.117,0,0,1-2.719-.686c-1.487-.634-.73-2.367-.088-3.379.836-1.337,2.138-2.341,3.053-3.625a5.6,5.6,0,0,0,1.082-4.584c-.37-1.663-2.912-.959-2.543.7s-1.373,3.247-2.429,4.4A9.265,9.265,0,0,0,.2,32.821a4.2,4.2,0,0,0,1.021,4.268c1.355,1.249,3.608,1.408,5.332,1.76a175.981,175.981,0,0,0,25.3,3.1c17.22.95,34.466-.07,51.668-.757a469.128,469.128,0,0,1,52.645.625c17.642,1.267,35.2,3.414,52.733,5.649L202,49.135c3.335.422,7.277.88,9.5-2.253a12.837,12.837,0,0,0,1.76-4.936l1.434-6.7,2.868-12.979c1.179-5.279,4.655-15.539-2.816-17.994a14.474,14.474,0,0,0-5.6-.29c-2.121.141-4.241.264-6.371.352-4.47.194-8.94.264-13.4.255-17.712-.035-35.39-1.161-53.137-1.953S100.713.881,82.939.371,47.417-.228,29.7.881c-7.347.4-15.328.66-20.9,6.159-4.285,4.4-6.159,10.559-7.11,16.4C1.2,26.495.923,29.6.73,32.654c-.088,1.469,2.323,1.821,2.6.352l3.977-22c.3-1.663-2.244-2.376-2.552-.7Z" transform="translate(0.005 -0.008)" fill="#3f3f3f"/>
        <path id="Path_2134" data-name="Path 2134" d="M45.939,14.315a2.156,2.156,0,0,0,1.645-3.335c-.924-1.557-2.948-1.161-4.338-.59a18.082,18.082,0,0,0-4.206,2.437c-1.32,1.029-2.578,2.235-2.3,4.048.246,1.6,1.522,2.737,2.4,4a8.9,8.9,0,0,1,1.654,3.7,4.241,4.241,0,0,1-.7,3.088,2.7,2.7,0,0,1-1.029.88,2.446,2.446,0,0,1-.66.2,4.074,4.074,0,0,1-1.223,0,6.441,6.441,0,0,1-1.936-.5A3.986,3.986,0,0,1,34.5,27.8a1.988,1.988,0,0,1-.466-.51.757.757,0,0,1,0-1c.123-.194.141-.15.37-.326h-.088c.141.044.158.044,0,0a1.355,1.355,0,0,0,1.8-.475,1.337,1.337,0,0,0-.475-1.8,2.992,2.992,0,0,0-3.731,1.179,3.52,3.52,0,0,0,0,4.03,6.159,6.159,0,0,0,3.52,2.217,7.039,7.039,0,0,0,5-.282c2.64-1.329,3.467-4.646,2.868-7.33a11.764,11.764,0,0,0-2.068-4.259c-.431-.6-.924-1.153-1.346-1.76-.238-.343-.66-.941-.519-1.285a4.584,4.584,0,0,1,1.6-1.522,15.548,15.548,0,0,1,2.288-1.39,9.292,9.292,0,0,1,2.068-.783c.519-.123.1.062.123,0s-.308-.414-.123-.167v-.141h0a.8.8,0,0,1,.651-.458,1.321,1.321,0,0,0,0,2.64Z" transform="translate(-3.752 -1.194)" fill="#3f3f3f"/>
        <path id="Path_2135" data-name="Path 2135" d="M56.5,28.5c2.05-.053,5.183-.977,5-3.581-.194-2.754-3.326-3.1-5.42-2.367-2.226.774-4.822,2.517-5.279,5-.493,2.719,1.478,4.971,3.9,5.9,3.124,1.179,6.467-.493,9.177-1.945,1.5-.8.167-3.08-1.329-2.279-1.813.968-3.766,2.033-5.887,1.953a3.643,3.643,0,0,1-3.238-2.244,1.76,1.76,0,0,1-.062-.757,2.156,2.156,0,0,1,.44-1.021,5.9,5.9,0,0,1,1.83-1.487l.572-.308s.537-.255.326-.167a5.28,5.28,0,0,1,1.161-.326H58a3.3,3.3,0,0,1,.51,0c-.255,0,.15.044.229.07.238.062.053,0,0,0,.176.088.158.185.079,0h0l.053.088q-.062-.185,0-.053c0,.044.07.282,0,.123s0-.07,0,.07v-.132c-.088.044,0,.167,0,0,0,.079-.211.282-.044.1l-.158.158c.132-.123,0,0-.079.044a4.338,4.338,0,0,1-2.121.537c-1.7.044-1.707,2.684,0,2.64Z" transform="translate(-6.087 -2.676)" fill="#3f3f3f"/>
        <path id="Path_2136" data-name="Path 2136" d="M73.674,20.007l-3.81,11.439a1.337,1.337,0,0,0,1.628,1.645L84.268,30.6c1.593-.317,3.335-.766,4.294-2.191a3.432,3.432,0,0,0-1.408-4.8c-1.9-1.109-4.039-.414-5.86.475a11.148,11.148,0,0,0-4.162,3.247,3.942,3.942,0,0,0,0,4.989A8.312,8.312,0,0,0,82.217,34.7c4.4.625,8.72-1.038,12.732-2.728a1.346,1.346,0,0,0,.475-1.813,1.364,1.364,0,0,0-1.813-.466,26.75,26.75,0,0,1-8.8,2.5,9.336,9.336,0,0,1-4.25-.669,3.722,3.722,0,0,1-1.522-1,1.2,1.2,0,0,1-.211-.493v-.3a2.466,2.466,0,0,1,.079-.273c.062-.185,0-.044.1-.211a4.086,4.086,0,0,1,.229-.387,4.293,4.293,0,0,1,.581-.651,8.465,8.465,0,0,1,1.6-1.161,12.76,12.76,0,0,1,1.971-.994,3.819,3.819,0,0,1,1.936-.326,1.5,1.5,0,0,1,1.091.818.51.51,0,0,1,0,.282.554.554,0,0,1-.238.352,3.124,3.124,0,0,1-1.214.581c-.7.211-1.425.326-2.147.466L70.787,30.557l1.619,1.654,3.81-11.439a1.337,1.337,0,0,0-.88-1.628,1.355,1.355,0,0,0-1.628.924Z" transform="translate(-8.38 -2.301)" fill="#3f3f3f"/>
        <path id="Path_2137" data-name="Path 2137" d="M103.167,23.774a6.543,6.543,0,0,1-.686.387c-.167.079.211-.079,0,0l-.15.062-.458.15c-.528.167-1.065.29-1.593.475a4.558,4.558,0,0,0-2.992,2.569,4.461,4.461,0,0,0,.414,3.7,5.649,5.649,0,0,0,3.159,2.5,13.128,13.128,0,0,0,4.8.422,1.32,1.32,0,0,0,0-2.64c-.6,0-1.2.044-1.76,0h-1.082l-.449-.079a6.643,6.643,0,0,1-.818-.229l-.176-.07h-.044l-.387-.211a2.535,2.535,0,0,1-.3-.2c.176.132,0,0-.053-.062l-.255-.264-.158-.185c.07.079.1.132,0,0s-.22-.4-.343-.59,0,.062,0,.079a1.257,1.257,0,0,1-.07-.194,3.2,3.2,0,0,1-.1-.343v-.387a.7.7,0,0,1,0-.194s-.062.273,0,.114a2.192,2.192,0,0,0,.079-.326c0-.088.114-.185,0,0a.157.157,0,0,1,.07-.132c.07-.035.185-.29.1-.167s.123-.132.167-.167a.6.6,0,0,0,.106-.106c.106-.114-.167.1,0,0s.378-.22.572-.317c.062,0,.229-.07,0,0l.141-.053.352-.123a11.668,11.668,0,0,0,3.282-1.249,1.364,1.364,0,0,0,.475-1.813,1.329,1.329,0,0,0-1.76-.466Z" transform="translate(-11.652 -2.83)" fill="#3f3f3f"/>
        <path id="Path_2138" data-name="Path 2138" d="M118.758,17.344l-3,6.476c-.88,1.945-1.918,4.074-1.76,6.283.264,4.224,4.4,6.327,8.271,5.763a18.6,18.6,0,0,0,6.67-2.842,1.32,1.32,0,0,0-1.329-2.279,19.815,19.815,0,0,1-4.813,2.323,5.838,5.838,0,0,1-3.933-.123,3.256,3.256,0,0,1-2.226-2.842,10.374,10.374,0,0,1,1.417-4.954l2.983-6.476a1.346,1.346,0,0,0-.475-1.8,1.329,1.329,0,0,0-1.76.475Z" transform="translate(-13.684 -2.014)" fill="#3f3f3f"/>
        <path id="Path_2139" data-name="Path 2139" d="M122.9,23.95a1.32,1.32,0,1,0-1.32-1.32,1.32,1.32,0,0,0,1.32,1.32Z" transform="translate(-14.597 -2.566)" fill="#3f3f3f"/>
        <path id="Path_2140" data-name="Path 2140" d="M211.71,7.827c-.343,9.846-5.9,18.478-8.306,27.849a33.787,33.787,0,0,0-1.144,8.28,1.32,1.32,0,1,0,2.64,0c.053-9.846,5.57-18.566,8.122-27.849a36.129,36.129,0,0,0,1.329-8.28C214.411,6.128,211.772,6.137,211.71,7.827Z" transform="translate(-24.286 -0.794)" fill="#3f3f3f"/>
        <path id="Path_2141" data-name="Path 2141" d="M219.476,27.759a35.3,35.3,0,0,1,1.936,11.58,1.329,1.329,0,0,0,2.253.933l11.28-13.515c.563-.678.493-2.024-.581-2.2a37.2,37.2,0,0,0-14.325.414,1.355,1.355,0,0,0-.924,1.628l1.76,7.7a1.346,1.346,0,0,0,1.276.968,1.364,1.364,0,0,0,1.267-.968,24.056,24.056,0,0,0,1.381-8.078,1.32,1.32,0,1,0-2.64,0,13.392,13.392,0,0,0,.6,5.746,1.337,1.337,0,0,0,1.452.95,1.32,1.32,0,0,0,1.144-1.3,24.067,24.067,0,0,1,.458-7.1h-2.543a27.073,27.073,0,0,1,.053,6.59c-.15,1.346,1.848,1.76,2.464.66l3.027-5.279h-2.279c.07.132.123.29.2.422v.079c.158.563.678.37,1.549-.581l.343.581v.185l-.185.669v-.053l-.475.475-1.417-.378-.132-1.012v.044l.334-.581.035.053a1.311,1.311,0,0,0-.273,1.443,1.276,1.276,0,0,0,1.205.81,3.9,3.9,0,0,0,2.93-1.76,1.338,1.338,0,1,0-2.1-1.654l-6.67,8.535,2.068,1.6A11.439,11.439,0,0,0,224,24.556l-.783,1.936a17.141,17.141,0,0,1,6.59-.4,1.332,1.332,0,0,0,.352-2.64L219.6,21.908c-.933-.132-1.962.572-1.628,1.628l1.522,4.8a1.346,1.346,0,0,0,1.628.88,1.329,1.329,0,0,0,.88-1.619l-1.373-4.725-1.619,1.628,10.559,1.54.352-2.587a19.059,19.059,0,0,0-7.294.493,1.337,1.337,0,0,0-.792,1.936,8.685,8.685,0,0,1-.053,8.139,1.329,1.329,0,0,0,.343,1.707,1.3,1.3,0,0,0,1.76-.106l6.67-8.535-2.182-1.575a1.17,1.17,0,0,1-.651.466l.933,2.253a1.452,1.452,0,0,0-1.073-2.473,1.478,1.478,0,0,0-1.329,2.226,1.76,1.76,0,0,0,2.684.246c.88-.941.343-2.121-.123-3.1a1.329,1.329,0,0,0-2.279,0l-3.027,5.279,2.455.669a28.921,28.921,0,0,0-.15-7.294c-.185-1.3-2.279-1.205-2.543,0a26.4,26.4,0,0,0-.554,7.8l2.6-.352a11.439,11.439,0,0,1-.51-5.042h-2.64a22,22,0,0,1-1.285,7.374h2.543l-1.76-7.7-.924,1.628a33.6,33.6,0,0,1,12.917-.422l-.581-2.209L221.8,38.406l2.253.933a37.572,37.572,0,0,0-2.033-12.275,1.355,1.355,0,0,0-1.628-.924,1.32,1.32,0,0,0-.88,1.619Z" transform="translate(-26.165 -2.636)" fill="#3f3f3f"/>
        <path id="Path_2142" data-name="Path 2142" d="M229.457,28.449l3.4-2.974-2.2-1.285c-.273.7-.422,1.047-.677,1.637s-.537,1.161-.818,1.76q-.88,1.76-1.892,3.414a1.32,1.32,0,0,0,2.068,1.6l5.6-5.667-2.077-1.6-2.49,3.748a1.329,1.329,0,0,0,.475,1.8,1.346,1.346,0,0,0,1.76-.475l2.49-3.748a1.3,1.3,0,0,0-.334-1.7,1.32,1.32,0,0,0-1.76.106l-5.579,5.64,2.077,1.593a46.33,46.33,0,0,0,3.678-7.409,1.311,1.311,0,0,0-.607-1.487,1.373,1.373,0,0,0-1.6.2l-3.37,2.939a1.329,1.329,0,0,0,0,1.865,1.355,1.355,0,0,0,1.865,0Z" transform="translate(-27.268 -2.798)" fill="#3f3f3f"/>
        <path id="Path_2143" data-name="Path 2143" d="M115.955,22.813a14.694,14.694,0,0,1-8.1.352,1.324,1.324,0,1,0-.7,2.552,17.6,17.6,0,0,0,9.512-.352,1.324,1.324,0,1,0-.7-2.552Z" transform="translate(-12.747 -2.741)" fill="#3f3f3f"/>
      </g>
    </g>
  </g>
</svg>
