<svg id="upload" xmlns="http://www.w3.org/2000/svg" width="29.52" height="27.003" viewBox="0 0 29.52 27.003">
  <path id="Path_1836" data-name="Path 1836" d="M30.919,17.861H24.367a1.833,1.833,0,0,0-1.751,1.226,4.909,4.909,0,0,1-9.229,0,1.834,1.834,0,0,0-1.752-1.226H5.083a1.806,1.806,0,0,0-1.841,1.771v10.1A1.807,1.807,0,0,0,5.083,31.5H30.921a1.806,1.806,0,0,0,1.841-1.77v-10.1a1.806,1.806,0,0,0-1.841-1.771Z" transform="translate(-3.242 -4.498)" fill="#065367"/>
  <path id="Path_1837" data-name="Path 1837" d="M12.892,12.339h2.4v6.188a.485.485,0,0,0,.495.477h4.434a.485.485,0,0,0,.5-.477V12.339h2.4a.5.5,0,0,0,.44-.258.459.459,0,0,0-.037-.495L18.386,4.7a.5.5,0,0,0-.4-.2h0a.5.5,0,0,0-.4.2l-5.092,6.888a.464.464,0,0,0-.036.5A.5.5,0,0,0,12.892,12.339Z" transform="translate(-3.242 -4.498)" fill="#065367"/>
</svg>
