<svg xmlns="http://www.w3.org/2000/svg" viewBox="0 0 758.81 439.15"><defs><style>.cls-1{fill:#fff;}.cls-2{fill:#231f20;}</style></defs><g id="Layer_2" data-name="Layer 2"><g id="Layer_1-2" data-name="Layer 1"><rect class="cls-1" x="379.4" width="379.4" height="439.15"/><rect class="cls-2" width="379.4" height="439.15"/><path class="cls-1" d="M69.24,216.8q57.36-3.77,90.1-8.35a9.65,9.65,0,0,0,8.41-11.16l-1.37-9.79-60.14,8.42q-19,2.67-32.09-7.19T58.4,159.85L57,150.06q-2.66-19,7.2-32.1t28.88-15.74l95.11-13.33,5.09,36.36-78.32,11a9.89,9.89,0,1,0,2.74,19.58l50.35-7.06q19-2.66,32.1,7.2t15.74,28.88L217.49,196q2.67,19-7.2,32.1t-28.88,15.74q-49.51,6.94-107.08,9.3Z"/><path class="cls-1" d="M379.23,210.44Q326,223.6,282.11,229.75q-19,2.67-32.1-7.2t-15.74-28.88l-9.41-67.13q-2.94-21,7.28-34.54t31.21-16.49l55.94-7.84q21-2.94,34.53,7.29t16.5,31.2l7.25,51.74-96.51,13.53,1.57,11.19A9.65,9.65,0,0,0,293.79,191q27.7-3.87,80.54-15.56Zm-95.6-102.12q-11.19,1.58-9.62,12.76l2.15,15.38,47.56-6.66-2.16-15.39q-1.56-11.18-12.76-9.62Z"/><path class="cls-2" d="M488.52,44q22.65-3.18,37.32,11.88a93.77,93.77,0,0,1,26-16.62q14.39-6.15,26.14-7.8l2.8-.4q19-2.65,32.09,7.2T628.66,67.1L644,176.19l-49,6.86L580.89,82.35a9.65,9.65,0,0,0-11.16-8.41l-1.4.19Q555.75,75.9,537,84.23l14.69,104.9L502.69,196,488.58,95.29a9.66,9.66,0,0,0-11.16-8.42l-1.4.2q-12.58,1.75-31.38,10.1l14.69,104.89-48.95,6.86L389.61,60.67,433,54.6l4.75,13.59a101.23,101.23,0,0,1,25.21-16.51q13.29-6,22.79-7.33Z"/><path class="cls-2" d="M642.75,25.2l50.36-7.06,5.88,42-50.36,7.06Zm10.43,74.43L703.6,93l9.89,70.59-15.27,33.51L673,200.64l10.07-29.93-19.58,2.74Z"/><path class="cls-1" d="M191.18,408.25a624.31,624.31,0,0,1-64,13q-13.29,1.86-22.43-5T93.76,396l-6.3-45q-2.05-14.65,5.09-24.13t21.81-11.53l62.57-8.77,3.7,26.4-51.82,7.26q-7.82,1.1-6.72,8.91l5.34,38.13a6.73,6.73,0,0,0,7.8,5.88q17.61-2.46,52.39-10.33Z"/><path class="cls-1" d="M308.56,363.89q2.06,14.67-5.09,24.14t-21.81,11.53l-45,6.3q-14.66,2.06-24.14-5.09T201,379l-6.31-45q-2.06-14.65,5.09-24.14t21.81-11.53l45-6.3q14.67-2.06,24.14,5.09t11.53,21.81Zm-40.1-37.24c-.73-5.21-3.71-7.46-8.92-6.72l-23.46,3.28q-7.83,1.1-6.73,8.92l5.48,39.1q1.09,7.83,8.92,6.73l23.46-3.29q7.82-1.1,6.73-8.92Z"/><path class="cls-1" d="M383.06,383.36a172.34,172.34,0,0,1-24.66,5.45,27.2,27.2,0,0,1-21-5.24q-9.15-6.88-11-20.19L311.09,253.89l34.22-4.8L360,353.7a6.77,6.77,0,0,0,7.81,5.89l11.73-1.65Z"/><path class="cls-2" d="M498.22,337.32q2.05,14.65-5.09,24.14T471.32,373l-45,6.3q-14.67,2.06-24.14-5.09t-11.53-21.81l-6.3-45q-2.06-14.67,5.09-24.14t21.81-11.53l45-6.3q14.67-2.06,24.14,5.09t11.53,21.81Zm-40.11-37.24q-1.1-7.83-8.92-6.73l-23.46,3.29q-7.82,1.1-6.72,8.91l5.48,39.11q1.1,7.81,8.91,6.72l23.47-3.28q7.81-1.1,6.72-8.92Z"/><path class="cls-2" d="M566.78,278.87a83.78,83.78,0,0,0-22.91,7.19l10.27,73.33-34.22,4.79L505.4,260.55l30.31-4.24,3.32,9.5a70.62,70.62,0,0,1,17.62-11.54,60.72,60.72,0,0,1,15.93-5.12l8.8-1.24q13.3-1.86,22.44,5t11,20.19l10.69,76.26-34.22,4.79-9.86-70.39a6.75,6.75,0,0,0-7.81-5.88Z"/><path class="cls-2" d="M635.36,320.09q40.1-2.62,63-5.83a6.75,6.75,0,0,0,5.89-7.8l-1-6.85-42,5.89q-13.29,1.88-22.44-5t-11-20.18l-1-6.85q-1.86-13.29,5-22.43T652,240l66.48-9.31,3.56,25.42-54.74,7.67a6.91,6.91,0,1,0,1.91,13.69l35.2-4.94q13.29-1.86,22.43,5t11,20.19l1.09,7.82q1.86,13.31-5,22.44t-20.19,11q-34.6,4.86-74.84,6.5Z"/><line class="cls-2" x1="647.37" y1="194.22" x2="71.9" y2="274.9"/><rect class="cls-2" x="69.09" y="230.56" width="581.1" height="8" transform="translate(-29.1 52.23) rotate(-7.98)"/><line class="cls-1" x1="379.4" y1="231.79" x2="71.9" y2="274.9"/><rect class="cls-1" x="70.4" y="249.35" width="310.51" height="8" transform="translate(-33 33.8) rotate(-7.98)"/><polygon class="cls-1" points="348.6 180.77 379.92 174.3 379.92 211.06 348.6 180.77"/></g></g></svg>