<svg id="Component_2_1" data-name="Component 2 – 1" xmlns="http://www.w3.org/2000/svg" width="213.23" height="25.477" viewBox="0 0 213.23 25.477">
  <g id="Layer_2" data-name="Layer 2" transform="translate(63.432 -28.004)">
    <g id="Layer_1" data-name="Layer 1" transform="translate(-0.003 0.004)">
      <path id="Path_1" data-name="Path 1" d="M5.2,147.811A5.01,5.01,0,0,1,1.515,146.3,4.993,4.993,0,0,1,0,142.63V130.776a5.1,5.1,0,0,1,2.067-4.164,4.727,4.727,0,0,1,2.46-1,5.081,5.081,0,0,1,4.346,1.493,5.035,5.035,0,0,1,1.508,3.674v.779a1.7,1.7,0,0,1-1.7,1.7h0a1.7,1.7,0,0,1-1.7-1.7v-.848a1.883,1.883,0,0,0-3.254-1.3,1.829,1.829,0,0,0-.5,1.291V142.6a1.861,1.861,0,0,0,1.814,1.871,1.93,1.93,0,0,0,1.42-.59,1.8,1.8,0,0,0,.517-1.281v-1.3a1.7,1.7,0,0,1,1.7-1.7h0a1.7,1.7,0,0,1,1.7,1.7v1.333a4.975,4.975,0,0,1-1.525,3.674,5.02,5.02,0,0,1-3.657,1.5Z" transform="translate(0.003 -94.341)" fill="#3f3f3f"/>
      <path id="Path_2" data-name="Path 2" d="M54.5,125.41a5.2,5.2,0,0,1,5.2,5.2v11.861a5.194,5.194,0,0,1-5.2,5.2,4.975,4.975,0,0,1-3.674-1.525,5.038,5.038,0,0,1-1.508-3.674V130.612A5.194,5.194,0,0,1,54.5,125.41Zm1.786,5.122a1.863,1.863,0,0,0-1.871-1.873,1.833,1.833,0,0,0-1.336.547,1.786,1.786,0,0,0-.555,1.326v11.889a1.786,1.786,0,0,0,.555,1.326,1.843,1.843,0,0,0,1.336.547,1.863,1.863,0,0,0,1.871-1.873Z" transform="translate(-37.048 -94.213)" fill="#3f3f3f"/>
      <path id="Path_3" data-name="Path 3" d="M108.914,143a5.038,5.038,0,0,1-1.508,3.674,4.938,4.938,0,0,1-3.64,1.525h-3.406a1.741,1.741,0,0,1-1.741-1.741v-18.25a1.741,1.741,0,0,1,1.741-1.741h3.406a4.923,4.923,0,0,1,3.654,1.522,5.04,5.04,0,0,1,1.493,3.657Zm-7.018,1.958h1.975a1.789,1.789,0,0,0,1.244-.478,1.876,1.876,0,0,0,.622-1.413V131.726a1.93,1.93,0,0,0-.5-1.323,1.779,1.779,0,0,0-1.346-.592h-1.975Z" transform="translate(-74.086 -95.006)" fill="#3f3f3f"/>
      <path id="Path_4" data-name="Path 4" d="M147.57,145.436v-16.22a2.756,2.756,0,0,1,2.756-2.756h4.921a1.647,1.647,0,0,1,1.647,1.647h0a1.647,1.647,0,0,1-1.647,1.647h-4.4v5.926h2.774a1.647,1.647,0,0,1,1.647,1.647h0a1.647,1.647,0,0,1-1.647,1.647h-2.774V144.9h4.4a1.647,1.647,0,0,1,1.647,1.647h0a1.647,1.647,0,0,1-1.647,1.647h-4.921A2.756,2.756,0,0,1,147.57,145.436Z" transform="translate(-110.858 -95.001)" fill="#3f3f3f"/>
      <path id="Path_5" data-name="Path 5" d="M195.747,148.18h0a1.637,1.637,0,0,1-1.637-1.639V128.913a2.468,2.468,0,0,1,2.468-2.468h.2a2.468,2.468,0,0,1,2.423,1.99l2.662,13.618,2.555-13.6a2.468,2.468,0,0,1,2.426-2.013h0a2.468,2.468,0,0,1,2.468,2.468v17.628a1.639,1.639,0,0,1-1.639,1.639h0a1.639,1.639,0,0,1-1.637-1.639V134.523l-2.57,12.354a1.639,1.639,0,0,1-1.6,1.3h0a1.637,1.637,0,0,1-1.595-1.266l-2.878-12.356v11.983a1.637,1.637,0,0,1-1.639,1.639Z" transform="translate(-145.82 -94.986)" fill="#3f3f3f"/>
      <path id="Path_6" data-name="Path 6" d="M267.236,139.08l-3.61-10.4a1.684,1.684,0,0,1,1.592-2.239h0a1.684,1.684,0,0,1,1.607,1.184l2.047,6.62,2.042-6.61a1.689,1.689,0,0,1,1.612-1.189h0a1.687,1.687,0,0,1,1.595,2.239l-3.62,10.391v7.463a1.639,1.639,0,0,1-1.637,1.639h0a1.639,1.639,0,0,1-1.639-1.639Z" transform="translate(-197.972 -94.986)" fill="#3f3f3f"/>
      <path id="Path_7" data-name="Path 7" d="M320.666,141.989a6.1,6.1,0,0,1-1.177,3.883,4.264,4.264,0,0,1-2.254,1.542,6.152,6.152,0,0,1-1.821.249,5.156,5.156,0,0,1-3.189-.953,5.336,5.336,0,0,1-1.672-2.122,7.559,7.559,0,0,1-.425-1.189,1.595,1.595,0,0,1,1.418-2.013h0a1.585,1.585,0,0,1,1.639,1.152,3.585,3.585,0,0,0,.774,1.493,1.677,1.677,0,0,0,1.353.609,2.028,2.028,0,0,0,1.707-1.057,2.615,2.615,0,0,0,.331-1.44,4,4,0,0,0-1.231-2.689l-2.911-2.759a12.313,12.313,0,0,1-2.306-2.829,6.533,6.533,0,0,1-.729-3.052,5.315,5.315,0,0,1,1.99-4.493,4.953,4.953,0,0,1,3.05-.92,5.54,5.54,0,0,1,2.985.781,4.527,4.527,0,0,1,1.57,1.7,5.722,5.722,0,0,1,.306.662,1.607,1.607,0,0,1-1.219,2.149h-.012a1.627,1.627,0,0,1-1.8-1.027,2.956,2.956,0,0,0-.46-.779,1.6,1.6,0,0,0-1.3-.537,1.493,1.493,0,0,0-1.371.8,3.082,3.082,0,0,0-.381,1.595,4.789,4.789,0,0,0,1.281,3.035,10.925,10.925,0,0,0,1.458,1.386q1.142.953,1.508,1.333a11.126,11.126,0,0,1,1.871,2.393,9.113,9.113,0,0,1,.5,1.022A5.886,5.886,0,0,1,320.666,141.989Z" transform="translate(-232.934 -94.204)" fill="#3f3f3f"/>
      <path id="Path_8" data-name="Path 8" d="M365.876,141.274v5.252a1.639,1.639,0,0,1-1.639,1.639h0a1.639,1.639,0,0,1-1.637-1.639V128.057a1.639,1.639,0,0,1,1.637-1.637h0a1.639,1.639,0,0,1,1.639,1.637v6.12l3.567-6.9a1.56,1.56,0,0,1,1.388-.846h0a1.562,1.562,0,0,1,1.393,2.269l-3.336,6.6,4.259,10.424a1.771,1.771,0,0,1-1.642,2.443h0a1.769,1.769,0,0,1-1.649-1.13l-3-7.694Z" transform="translate(-272.395 -94.971)" fill="#3f3f3f"/>
      <path id="Path_9" data-name="Path 9" d="M414.73,145.6V129.055a2.6,2.6,0,0,1,2.595-2.595h5.085a1.644,1.644,0,0,1,1.644,1.647h0a1.647,1.647,0,0,1-1.644,1.647h-4.4v5.926h2.774a1.649,1.649,0,0,1,1.647,1.647h0a1.647,1.647,0,0,1-1.647,1.647h-2.774V144.9h4.4a1.644,1.644,0,0,1,1.644,1.647h0a1.647,1.647,0,0,1-1.644,1.647h-5.085A2.6,2.6,0,0,1,414.73,145.6Z" transform="translate(-311.556 -95.001)" fill="#3f3f3f"/>
      <path id="Path_10" data-name="Path 10" d="M463.753,129.824h-1.836a1.647,1.647,0,0,1-1.647-1.647h0a1.647,1.647,0,0,1,1.647-1.647h6.933a1.647,1.647,0,0,1,1.647,1.647h0a1.649,1.649,0,0,1-1.647,1.647h-1.821v16.785a1.639,1.639,0,0,1-1.637,1.639h0a1.639,1.639,0,0,1-1.639-1.639Z" transform="translate(-345.767 -95.054)" fill="#3f3f3f"/>
      <path id="Path_11" data-name="Path 11" d="M513.627,147.77a5.177,5.177,0,0,1-5.2-5.182V130.734a5.013,5.013,0,0,1,1.555-3.714,5.187,5.187,0,0,1,3.644-1.493,4.976,4.976,0,0,1,3.674,1.527,5.028,5.028,0,0,1,1.51,3.674v.779a1.7,1.7,0,0,1-1.7,1.7h0a1.7,1.7,0,0,1-1.7-1.7v-.848a1.893,1.893,0,0,0-1.888-1.891,1.868,1.868,0,0,0-1.333.562,1.828,1.828,0,0,0-.54,1.328v11.9a1.868,1.868,0,0,0,1.868,1.873,1.908,1.908,0,0,0,1.338-.547,1.786,1.786,0,0,0,.555-1.326v-1.3a1.7,1.7,0,0,1,1.7-1.7h0a1.7,1.7,0,0,1,1.7,1.7V142.6a5.182,5.182,0,0,1-5.184,5.182Z" transform="translate(-381.944 -94.3)" fill="#3f3f3f"/>
      <path id="Path_12" data-name="Path 12" d="M563.236,139.043v7.565a1.639,1.639,0,0,1-1.637,1.639h0a1.639,1.639,0,0,1-1.639-1.639V128.167a1.639,1.639,0,0,1,1.639-1.637h0a1.639,1.639,0,0,1,1.637,1.637v7.583h3.948v-7.583a1.637,1.637,0,0,1,1.637-1.637h0a1.637,1.637,0,0,1,1.637,1.637v18.441a1.637,1.637,0,0,1-1.637,1.639h0a1.637,1.637,0,0,1-1.637-1.639v-7.565Z" transform="translate(-420.657 -95.054)" fill="#3f3f3f"/>
    </g>
  </g>
  <g id="Group_36" data-name="Group 36" transform="translate(-47.752 -31.744)">
    <path id="Path_33" data-name="Path 33" d="M199.8,33.448l13.167-6.789a1,1,0,0,1,1.455.888h0a1,1,0,0,1-.55.9l-12.227,6.13v.067l12.227,6.127a1,1,0,0,1,.55.893h0a1,1,0,0,1-1.455.888L199.8,35.769a1,1,0,0,1-.54-.888v-.545A1,1,0,0,1,199.8,33.448Z" transform="translate(-151.508 11.801)" fill="#04a5cf"/>
    <path id="Path_34" data-name="Path 34" d="M356.613,35.813l-13.165,6.754A1,1,0,0,1,342,41.679h0a1,1,0,0,1,.555-.893l12.322-6.13v-.067l-12.329-6.132a1,1,0,0,1-.547-.893h0a1,1,0,0,1,1.448-.893l13.165,6.754a1,1,0,0,1,.545.888v.609A1,1,0,0,1,356.613,35.813Z" transform="translate(-258.738 11.789)" fill="#04a5cf"/>
    <path id="Path_35" data-name="Path 35" d="M289.73.015a15.791,15.791,0,0,0-2.8.96c-.189.085-.577,1.393-.761,1.493s-.149-1.042-.323-.948a16.2,16.2,0,0,0-1.612,1c-.271.194-.9,3.132-1.154,3.341-.214.174-.065-2.383-.271-2.2a16.135,16.135,0,0,0-5.182,14.394,50.767,50.767,0,0,1,3.659-7.1.413.413,0,0,1,.709.42c-.234.4-.473.8-.709,1.212-.134.249-.269.468-.4.7-.022.042-.047.085-.07.129a29.7,29.7,0,0,0-3.759,9.483.413.413,0,0,0,.811.149,22.221,22.221,0,0,1,.913-3.383A16.088,16.088,0,0,0,290.158,8.18a.413.413,0,0,0-.5-.5l-1.493.361,2.309-2.174a.413.413,0,0,0,.127-.264,16.347,16.347,0,0,0,.027-2.617c0-.142-.945-.085-.96-.226s.893-.52.873-.682a15.675,15.675,0,0,0-.316-1.761.413.413,0,0,0-.5-.3Z" transform="translate(-209.951 31.741)" fill="#04a5cf"/>
    <path id="Path_36" data-name="Path 36" d="M288.7,90.817H278.63V90.6h7.956l-3.933-.826h7.122v.219h-5.01Z" transform="translate(-211.133 -35.694)" fill="#04a5cf"/>
  </g>
</svg>
